%TF.GenerationSoftware,KiCad,Pcbnew,9.0.2*%
%TF.CreationDate,2025-07-25T12:30:51-06:00*%
%TF.ProjectId,keypadV2-compact,6b657970-6164-4563-922d-636f6d706163,rev?*%
%TF.SameCoordinates,Original*%
%TF.FileFunction,Legend,Top*%
%TF.FilePolarity,Positive*%
%FSLAX46Y46*%
G04 Gerber Fmt 4.6, Leading zero omitted, Abs format (unit mm)*
G04 Created by KiCad (PCBNEW 9.0.2) date 2025-07-25 12:30:51*
%MOMM*%
%LPD*%
G01*
G04 APERTURE LIST*
%ADD10C,0.150000*%
%ADD11C,0.120000*%
G04 APERTURE END LIST*
D10*
X155971666Y-230904819D02*
X155971666Y-231619104D01*
X155971666Y-231619104D02*
X155924047Y-231761961D01*
X155924047Y-231761961D02*
X155828809Y-231857200D01*
X155828809Y-231857200D02*
X155685952Y-231904819D01*
X155685952Y-231904819D02*
X155590714Y-231904819D01*
X156400238Y-231000057D02*
X156447857Y-230952438D01*
X156447857Y-230952438D02*
X156543095Y-230904819D01*
X156543095Y-230904819D02*
X156781190Y-230904819D01*
X156781190Y-230904819D02*
X156876428Y-230952438D01*
X156876428Y-230952438D02*
X156924047Y-231000057D01*
X156924047Y-231000057D02*
X156971666Y-231095295D01*
X156971666Y-231095295D02*
X156971666Y-231190533D01*
X156971666Y-231190533D02*
X156924047Y-231333390D01*
X156924047Y-231333390D02*
X156352619Y-231904819D01*
X156352619Y-231904819D02*
X156971666Y-231904819D01*
X164146667Y-126557200D02*
X164289524Y-126604819D01*
X164289524Y-126604819D02*
X164527619Y-126604819D01*
X164527619Y-126604819D02*
X164622857Y-126557200D01*
X164622857Y-126557200D02*
X164670476Y-126509580D01*
X164670476Y-126509580D02*
X164718095Y-126414342D01*
X164718095Y-126414342D02*
X164718095Y-126319104D01*
X164718095Y-126319104D02*
X164670476Y-126223866D01*
X164670476Y-126223866D02*
X164622857Y-126176247D01*
X164622857Y-126176247D02*
X164527619Y-126128628D01*
X164527619Y-126128628D02*
X164337143Y-126081009D01*
X164337143Y-126081009D02*
X164241905Y-126033390D01*
X164241905Y-126033390D02*
X164194286Y-125985771D01*
X164194286Y-125985771D02*
X164146667Y-125890533D01*
X164146667Y-125890533D02*
X164146667Y-125795295D01*
X164146667Y-125795295D02*
X164194286Y-125700057D01*
X164194286Y-125700057D02*
X164241905Y-125652438D01*
X164241905Y-125652438D02*
X164337143Y-125604819D01*
X164337143Y-125604819D02*
X164575238Y-125604819D01*
X164575238Y-125604819D02*
X164718095Y-125652438D01*
X165051429Y-125604819D02*
X165289524Y-126604819D01*
X165289524Y-126604819D02*
X165480000Y-125890533D01*
X165480000Y-125890533D02*
X165670476Y-126604819D01*
X165670476Y-126604819D02*
X165908572Y-125604819D01*
X166241905Y-125700057D02*
X166289524Y-125652438D01*
X166289524Y-125652438D02*
X166384762Y-125604819D01*
X166384762Y-125604819D02*
X166622857Y-125604819D01*
X166622857Y-125604819D02*
X166718095Y-125652438D01*
X166718095Y-125652438D02*
X166765714Y-125700057D01*
X166765714Y-125700057D02*
X166813333Y-125795295D01*
X166813333Y-125795295D02*
X166813333Y-125890533D01*
X166813333Y-125890533D02*
X166765714Y-126033390D01*
X166765714Y-126033390D02*
X166194286Y-126604819D01*
X166194286Y-126604819D02*
X166813333Y-126604819D01*
D11*
%TO.C,J2*%
X153535000Y-230570000D02*
X153535000Y-222730000D01*
X156185000Y-227920000D02*
X156185000Y-230570000D01*
X156185000Y-230570000D02*
X153535000Y-230570000D01*
X158835000Y-222730000D02*
X153535000Y-222730000D01*
X158835000Y-227920000D02*
X156185000Y-227920000D01*
X158835000Y-227920000D02*
X158835000Y-222730000D01*
X158835000Y-229190000D02*
X158835000Y-230570000D01*
X158835000Y-230570000D02*
X157455000Y-230570000D01*
%TO.C,SW2*%
X162380000Y-129250000D02*
X162980000Y-129250000D01*
X162680000Y-129550000D02*
X162380000Y-129250000D01*
X162980000Y-129250000D02*
X162680000Y-129550000D01*
X164080000Y-127450000D02*
X164080000Y-139250000D01*
X168180000Y-127450000D02*
X164080000Y-127450000D01*
X168180000Y-139250000D02*
X164080000Y-139250000D01*
X169680000Y-133350000D02*
X170680000Y-133350000D01*
X170180000Y-132850000D02*
X170180000Y-133850000D01*
X172180000Y-127450000D02*
X176280000Y-127450000D01*
X176280000Y-127450000D02*
X176280000Y-129850000D01*
X176280000Y-132050000D02*
X176280000Y-134650000D01*
X176280000Y-136850000D02*
X176280000Y-139250000D01*
X176280000Y-139250000D02*
X172180000Y-139250000D01*
X173180000Y-133350000D02*
G75*
G02*
X167180000Y-133350000I-3000000J0D01*
G01*
X167180000Y-133350000D02*
G75*
G02*
X173180000Y-133350000I3000000J0D01*
G01*
%TD*%
M02*
