M48
; DRILL file {KiCad 9.0.2} date 2025-08-17T15:39:59-0600
; FORMAT={-:-/ absolute / metric / decimal}
; #@! TF.CreationDate,2025-08-17T15:39:59-06:00
; #@! TF.GenerationSoftware,Kicad,Pcbnew,9.0.2
; #@! TF.FileFunction,NonPlated,1,2,NPTH
FMAT,2
METRIC
; #@! TA.AperFunction,NonPlated,NPTH,ComponentDrill
T1C1.702
; #@! TA.AperFunction,NonPlated,NPTH,ComponentDrill
T2C3.988
%
G90
G05
T1
X79.375Y-133.35
X79.375Y-152.4
X79.375Y-171.45
X79.375Y-190.5
X79.375Y-209.55
X88.9Y-228.6
X89.535Y-133.35
X89.535Y-152.4
X89.535Y-171.45
X89.535Y-190.5
X89.535Y-209.55
X98.425Y-152.4
X98.425Y-171.45
X98.425Y-190.5
X98.425Y-209.55
X99.06Y-228.6
X107.957Y-133.35
X108.585Y-152.4
X108.585Y-171.45
X108.585Y-190.5
X108.585Y-209.55
X117.475Y-152.4
X117.475Y-171.45
X117.475Y-190.5
X117.475Y-209.55
X117.475Y-228.6
X118.117Y-133.35
X127.635Y-152.4
X127.635Y-171.45
X127.635Y-190.5
X127.635Y-209.55
X127.635Y-228.6
X136.525Y-133.35
X136.525Y-152.4
X136.525Y-171.45
X136.525Y-190.5
X136.525Y-219.075
X146.685Y-133.35
X146.685Y-152.4
X146.685Y-171.45
X146.685Y-190.5
X146.685Y-219.075
X165.1Y-152.4
X165.1Y-171.45
X165.1Y-190.5
X165.1Y-209.55
X165.1Y-228.6
X175.26Y-152.4
X175.26Y-171.45
X175.26Y-190.5
X175.26Y-209.55
X175.26Y-228.6
T2
X84.455Y-133.35
X84.455Y-152.4
X84.455Y-171.45
X84.455Y-190.5
X84.455Y-209.55
X93.98Y-228.6
X103.505Y-152.4
X103.505Y-171.45
X103.505Y-190.5
X103.505Y-209.55
X113.037Y-133.35
X122.555Y-152.4
X122.555Y-171.45
X122.555Y-190.5
X122.555Y-209.55
X122.555Y-228.6
X141.605Y-133.35
X141.605Y-152.4
X141.605Y-171.45
X141.605Y-190.5
X141.605Y-219.075
X170.18Y-152.4
X170.18Y-171.45
X170.18Y-190.5
X170.18Y-209.55
X170.18Y-228.6
M30
