%TF.GenerationSoftware,KiCad,Pcbnew,9.0.2*%
%TF.CreationDate,2025-08-17T15:34:09-06:00*%
%TF.ProjectId,keypadV2-compact,6b657970-6164-4563-922d-636f6d706163,rev?*%
%TF.SameCoordinates,Original*%
%TF.FileFunction,Soldermask,Top*%
%TF.FilePolarity,Negative*%
%FSLAX46Y46*%
G04 Gerber Fmt 4.6, Leading zero omitted, Abs format (unit mm)*
G04 Created by KiCad (PCBNEW 9.0.2) date 2025-08-17 15:34:09*
%MOMM*%
%LPD*%
G01*
G04 APERTURE LIST*
%ADD10R,1.700000X1.700000*%
%ADD11C,1.700000*%
%ADD12C,3.987800*%
%ADD13C,1.701800*%
%ADD14R,2.000000X2.000000*%
%ADD15C,2.000000*%
%ADD16R,3.200000X2.000000*%
%ADD17C,0.854000*%
%ADD18O,1.104000X1.904000*%
%ADD19O,1.104000X2.604000*%
G04 APERTURE END LIST*
D10*
%TO.C,J2*%
X157455000Y-229190000D03*
D11*
X154915000Y-229190000D03*
X157455000Y-226650000D03*
X154915000Y-226650000D03*
X157455000Y-224110000D03*
X154915000Y-224110000D03*
%TD*%
D12*
%TO.C,S10*%
X122555000Y-171450000D03*
D13*
X117475000Y-171450000D03*
X127635000Y-171450000D03*
%TD*%
D12*
%TO.C,S11*%
X141605000Y-171450000D03*
D13*
X136525000Y-171450000D03*
X146685000Y-171450000D03*
%TD*%
D12*
%TO.C,S9*%
X103505000Y-171450000D03*
D13*
X98425000Y-171450000D03*
X108585000Y-171450000D03*
%TD*%
D12*
%TO.C,S16*%
X84455000Y-209550000D03*
D13*
X79375000Y-209550000D03*
X89535000Y-209550000D03*
%TD*%
D12*
%TO.C,S12*%
X84455000Y-190500000D03*
D13*
X79375000Y-190500000D03*
X89535000Y-190500000D03*
%TD*%
%TO.C,S19*%
X136525000Y-219075000D03*
D12*
X141605000Y-219075000D03*
D13*
X146685000Y-219075000D03*
%TD*%
D12*
%TO.C,S25*%
X170180000Y-209550000D03*
D13*
X165100000Y-209550000D03*
X175260000Y-209550000D03*
%TD*%
D12*
%TO.C,S7*%
X141605000Y-152400000D03*
D13*
X136525000Y-152400000D03*
X146685000Y-152400000D03*
%TD*%
D12*
%TO.C,S18*%
X122555000Y-209550000D03*
D13*
X117475000Y-209550000D03*
X127635000Y-209550000D03*
%TD*%
D12*
%TO.C,S23*%
X170180000Y-171450000D03*
D13*
X165100000Y-171450000D03*
X175260000Y-171450000D03*
%TD*%
D12*
%TO.C,S5*%
X103505000Y-152400000D03*
D13*
X98425000Y-152400000D03*
X108585000Y-152400000D03*
%TD*%
D12*
%TO.C,S8*%
X84455000Y-171450000D03*
D13*
X79375000Y-171450000D03*
X89535000Y-171450000D03*
%TD*%
D12*
%TO.C,S26*%
X170180000Y-228600000D03*
D13*
X165100000Y-228600000D03*
X175260000Y-228600000D03*
%TD*%
D12*
%TO.C,S13*%
X103505000Y-190500000D03*
D13*
X98425000Y-190500000D03*
X108585000Y-190500000D03*
%TD*%
D14*
%TO.C,SW2*%
X162680000Y-130850000D03*
D15*
X162680000Y-135850000D03*
X162680000Y-133350000D03*
D16*
X170180000Y-127750000D03*
X170180000Y-138950000D03*
D15*
X177180000Y-135850000D03*
X177180000Y-130850000D03*
%TD*%
D12*
%TO.C,S4*%
X84455000Y-152400000D03*
D13*
X79375000Y-152400000D03*
X89535000Y-152400000D03*
%TD*%
D12*
%TO.C,S1*%
X84455000Y-133350000D03*
D13*
X79375000Y-133350000D03*
X89535000Y-133350000D03*
%TD*%
D12*
%TO.C,S24*%
X170180000Y-190500000D03*
D13*
X165100000Y-190500000D03*
X175260000Y-190500000D03*
%TD*%
D12*
%TO.C,S22*%
X170180000Y-152400000D03*
D13*
X165100000Y-152400000D03*
X175260000Y-152400000D03*
%TD*%
%TO.C,S2*%
X107957000Y-133350000D03*
D12*
X113037000Y-133350000D03*
D13*
X118117000Y-133350000D03*
%TD*%
D12*
%TO.C,S6*%
X122555000Y-152400000D03*
D13*
X117475000Y-152400000D03*
X127635000Y-152400000D03*
%TD*%
%TO.C,S20*%
X88900000Y-228600000D03*
D12*
X93980000Y-228600000D03*
D13*
X99060000Y-228600000D03*
%TD*%
D12*
%TO.C,S15*%
X141605000Y-190500000D03*
D13*
X136525000Y-190500000D03*
X146685000Y-190500000D03*
%TD*%
D12*
%TO.C,S21*%
X122555000Y-228600000D03*
D13*
X117475000Y-228600000D03*
X127635000Y-228600000D03*
%TD*%
D12*
%TO.C,S14*%
X122555000Y-190500000D03*
D13*
X117475000Y-190500000D03*
X127635000Y-190500000D03*
%TD*%
D12*
%TO.C,S17*%
X103505000Y-209550000D03*
D13*
X98425000Y-209550000D03*
X108585000Y-209550000D03*
%TD*%
D12*
%TO.C,S3*%
X141605000Y-133350000D03*
D13*
X136525000Y-133350000D03*
X146685000Y-133350000D03*
%TD*%
D17*
%TO.C,J1*%
X153505000Y-128072500D03*
X154355000Y-128072500D03*
X155205000Y-128072500D03*
X156055000Y-128072500D03*
X156905000Y-128072500D03*
X157755000Y-128072500D03*
X158605000Y-128072500D03*
X159455000Y-128072500D03*
X159455000Y-126722500D03*
X158605000Y-126722500D03*
X157755000Y-126722500D03*
X156905000Y-126722500D03*
X156055000Y-126722500D03*
X155205000Y-126722500D03*
X154355000Y-126722500D03*
X153505000Y-126722500D03*
D18*
X152155000Y-123712500D03*
X160805000Y-123712500D03*
D19*
X152155000Y-127092500D03*
X160805000Y-127092500D03*
%TD*%
M02*
