%TF.GenerationSoftware,KiCad,Pcbnew,9.0.2*%
%TF.CreationDate,2025-08-17T15:34:09-06:00*%
%TF.ProjectId,keypadV2-compact,6b657970-6164-4563-922d-636f6d706163,rev?*%
%TF.SameCoordinates,Original*%
%TF.FileFunction,Legend,Bot*%
%TF.FilePolarity,Positive*%
%FSLAX46Y46*%
G04 Gerber Fmt 4.6, Leading zero omitted, Abs format (unit mm)*
G04 Created by KiCad (PCBNEW 9.0.2) date 2025-08-17 15:34:09*
%MOMM*%
%LPD*%
G01*
G04 APERTURE LIST*
%ADD10C,0.150000*%
%ADD11C,0.120000*%
%ADD12C,0.200000*%
G04 APERTURE END LIST*
D10*
X115509819Y-151611905D02*
X114509819Y-151611905D01*
X114509819Y-151611905D02*
X114509819Y-151850000D01*
X114509819Y-151850000D02*
X114557438Y-151992857D01*
X114557438Y-151992857D02*
X114652676Y-152088095D01*
X114652676Y-152088095D02*
X114747914Y-152135714D01*
X114747914Y-152135714D02*
X114938390Y-152183333D01*
X114938390Y-152183333D02*
X115081247Y-152183333D01*
X115081247Y-152183333D02*
X115271723Y-152135714D01*
X115271723Y-152135714D02*
X115366961Y-152088095D01*
X115366961Y-152088095D02*
X115462200Y-151992857D01*
X115462200Y-151992857D02*
X115509819Y-151850000D01*
X115509819Y-151850000D02*
X115509819Y-151611905D01*
X114509819Y-153088095D02*
X114509819Y-152611905D01*
X114509819Y-152611905D02*
X114986009Y-152564286D01*
X114986009Y-152564286D02*
X114938390Y-152611905D01*
X114938390Y-152611905D02*
X114890771Y-152707143D01*
X114890771Y-152707143D02*
X114890771Y-152945238D01*
X114890771Y-152945238D02*
X114938390Y-153040476D01*
X114938390Y-153040476D02*
X114986009Y-153088095D01*
X114986009Y-153088095D02*
X115081247Y-153135714D01*
X115081247Y-153135714D02*
X115319342Y-153135714D01*
X115319342Y-153135714D02*
X115414580Y-153088095D01*
X115414580Y-153088095D02*
X115462200Y-153040476D01*
X115462200Y-153040476D02*
X115509819Y-152945238D01*
X115509819Y-152945238D02*
X115509819Y-152707143D01*
X115509819Y-152707143D02*
X115462200Y-152611905D01*
X115462200Y-152611905D02*
X115414580Y-152564286D01*
X144271666Y-202004819D02*
X144604999Y-201528628D01*
X144843094Y-202004819D02*
X144843094Y-201004819D01*
X144843094Y-201004819D02*
X144462142Y-201004819D01*
X144462142Y-201004819D02*
X144366904Y-201052438D01*
X144366904Y-201052438D02*
X144319285Y-201100057D01*
X144319285Y-201100057D02*
X144271666Y-201195295D01*
X144271666Y-201195295D02*
X144271666Y-201338152D01*
X144271666Y-201338152D02*
X144319285Y-201433390D01*
X144319285Y-201433390D02*
X144366904Y-201481009D01*
X144366904Y-201481009D02*
X144462142Y-201528628D01*
X144462142Y-201528628D02*
X144843094Y-201528628D01*
X143414523Y-201004819D02*
X143604999Y-201004819D01*
X143604999Y-201004819D02*
X143700237Y-201052438D01*
X143700237Y-201052438D02*
X143747856Y-201100057D01*
X143747856Y-201100057D02*
X143843094Y-201242914D01*
X143843094Y-201242914D02*
X143890713Y-201433390D01*
X143890713Y-201433390D02*
X143890713Y-201814342D01*
X143890713Y-201814342D02*
X143843094Y-201909580D01*
X143843094Y-201909580D02*
X143795475Y-201957200D01*
X143795475Y-201957200D02*
X143700237Y-202004819D01*
X143700237Y-202004819D02*
X143509761Y-202004819D01*
X143509761Y-202004819D02*
X143414523Y-201957200D01*
X143414523Y-201957200D02*
X143366904Y-201909580D01*
X143366904Y-201909580D02*
X143319285Y-201814342D01*
X143319285Y-201814342D02*
X143319285Y-201576247D01*
X143319285Y-201576247D02*
X143366904Y-201481009D01*
X143366904Y-201481009D02*
X143414523Y-201433390D01*
X143414523Y-201433390D02*
X143509761Y-201385771D01*
X143509761Y-201385771D02*
X143700237Y-201385771D01*
X143700237Y-201385771D02*
X143795475Y-201433390D01*
X143795475Y-201433390D02*
X143843094Y-201481009D01*
X143843094Y-201481009D02*
X143890713Y-201576247D01*
X96459819Y-189285714D02*
X95459819Y-189285714D01*
X95459819Y-189285714D02*
X95459819Y-189523809D01*
X95459819Y-189523809D02*
X95507438Y-189666666D01*
X95507438Y-189666666D02*
X95602676Y-189761904D01*
X95602676Y-189761904D02*
X95697914Y-189809523D01*
X95697914Y-189809523D02*
X95888390Y-189857142D01*
X95888390Y-189857142D02*
X96031247Y-189857142D01*
X96031247Y-189857142D02*
X96221723Y-189809523D01*
X96221723Y-189809523D02*
X96316961Y-189761904D01*
X96316961Y-189761904D02*
X96412200Y-189666666D01*
X96412200Y-189666666D02*
X96459819Y-189523809D01*
X96459819Y-189523809D02*
X96459819Y-189285714D01*
X96459819Y-190809523D02*
X96459819Y-190238095D01*
X96459819Y-190523809D02*
X95459819Y-190523809D01*
X95459819Y-190523809D02*
X95602676Y-190428571D01*
X95602676Y-190428571D02*
X95697914Y-190333333D01*
X95697914Y-190333333D02*
X95745533Y-190238095D01*
X95555057Y-191190476D02*
X95507438Y-191238095D01*
X95507438Y-191238095D02*
X95459819Y-191333333D01*
X95459819Y-191333333D02*
X95459819Y-191571428D01*
X95459819Y-191571428D02*
X95507438Y-191666666D01*
X95507438Y-191666666D02*
X95555057Y-191714285D01*
X95555057Y-191714285D02*
X95650295Y-191761904D01*
X95650295Y-191761904D02*
X95745533Y-191761904D01*
X95745533Y-191761904D02*
X95888390Y-191714285D01*
X95888390Y-191714285D02*
X96459819Y-191142857D01*
X96459819Y-191142857D02*
X96459819Y-191761904D01*
X158671666Y-141254819D02*
X159004999Y-140778628D01*
X159243094Y-141254819D02*
X159243094Y-140254819D01*
X159243094Y-140254819D02*
X158862142Y-140254819D01*
X158862142Y-140254819D02*
X158766904Y-140302438D01*
X158766904Y-140302438D02*
X158719285Y-140350057D01*
X158719285Y-140350057D02*
X158671666Y-140445295D01*
X158671666Y-140445295D02*
X158671666Y-140588152D01*
X158671666Y-140588152D02*
X158719285Y-140683390D01*
X158719285Y-140683390D02*
X158766904Y-140731009D01*
X158766904Y-140731009D02*
X158862142Y-140778628D01*
X158862142Y-140778628D02*
X159243094Y-140778628D01*
X157814523Y-140588152D02*
X157814523Y-141254819D01*
X158052618Y-140207200D02*
X158290713Y-140921485D01*
X158290713Y-140921485D02*
X157671666Y-140921485D01*
X159816904Y-204054819D02*
X159816904Y-204864342D01*
X159816904Y-204864342D02*
X159769285Y-204959580D01*
X159769285Y-204959580D02*
X159721666Y-205007200D01*
X159721666Y-205007200D02*
X159626428Y-205054819D01*
X159626428Y-205054819D02*
X159435952Y-205054819D01*
X159435952Y-205054819D02*
X159340714Y-205007200D01*
X159340714Y-205007200D02*
X159293095Y-204959580D01*
X159293095Y-204959580D02*
X159245476Y-204864342D01*
X159245476Y-204864342D02*
X159245476Y-204054819D01*
X158245476Y-205054819D02*
X158816904Y-205054819D01*
X158531190Y-205054819D02*
X158531190Y-204054819D01*
X158531190Y-204054819D02*
X158626428Y-204197676D01*
X158626428Y-204197676D02*
X158721666Y-204292914D01*
X158721666Y-204292914D02*
X158816904Y-204340533D01*
X170219285Y-184804819D02*
X170219285Y-183804819D01*
X170219285Y-183804819D02*
X169981190Y-183804819D01*
X169981190Y-183804819D02*
X169838333Y-183852438D01*
X169838333Y-183852438D02*
X169743095Y-183947676D01*
X169743095Y-183947676D02*
X169695476Y-184042914D01*
X169695476Y-184042914D02*
X169647857Y-184233390D01*
X169647857Y-184233390D02*
X169647857Y-184376247D01*
X169647857Y-184376247D02*
X169695476Y-184566723D01*
X169695476Y-184566723D02*
X169743095Y-184661961D01*
X169743095Y-184661961D02*
X169838333Y-184757200D01*
X169838333Y-184757200D02*
X169981190Y-184804819D01*
X169981190Y-184804819D02*
X170219285Y-184804819D01*
X169266904Y-183900057D02*
X169219285Y-183852438D01*
X169219285Y-183852438D02*
X169124047Y-183804819D01*
X169124047Y-183804819D02*
X168885952Y-183804819D01*
X168885952Y-183804819D02*
X168790714Y-183852438D01*
X168790714Y-183852438D02*
X168743095Y-183900057D01*
X168743095Y-183900057D02*
X168695476Y-183995295D01*
X168695476Y-183995295D02*
X168695476Y-184090533D01*
X168695476Y-184090533D02*
X168743095Y-184233390D01*
X168743095Y-184233390D02*
X169314523Y-184804819D01*
X169314523Y-184804819D02*
X168695476Y-184804819D01*
X167838333Y-184138152D02*
X167838333Y-184804819D01*
X168076428Y-183757200D02*
X168314523Y-184471485D01*
X168314523Y-184471485D02*
X167695476Y-184471485D01*
X156221666Y-141204819D02*
X156554999Y-140728628D01*
X156793094Y-141204819D02*
X156793094Y-140204819D01*
X156793094Y-140204819D02*
X156412142Y-140204819D01*
X156412142Y-140204819D02*
X156316904Y-140252438D01*
X156316904Y-140252438D02*
X156269285Y-140300057D01*
X156269285Y-140300057D02*
X156221666Y-140395295D01*
X156221666Y-140395295D02*
X156221666Y-140538152D01*
X156221666Y-140538152D02*
X156269285Y-140633390D01*
X156269285Y-140633390D02*
X156316904Y-140681009D01*
X156316904Y-140681009D02*
X156412142Y-140728628D01*
X156412142Y-140728628D02*
X156793094Y-140728628D01*
X155888332Y-140204819D02*
X155269285Y-140204819D01*
X155269285Y-140204819D02*
X155602618Y-140585771D01*
X155602618Y-140585771D02*
X155459761Y-140585771D01*
X155459761Y-140585771D02*
X155364523Y-140633390D01*
X155364523Y-140633390D02*
X155316904Y-140681009D01*
X155316904Y-140681009D02*
X155269285Y-140776247D01*
X155269285Y-140776247D02*
X155269285Y-141014342D01*
X155269285Y-141014342D02*
X155316904Y-141109580D01*
X155316904Y-141109580D02*
X155364523Y-141157200D01*
X155364523Y-141157200D02*
X155459761Y-141204819D01*
X155459761Y-141204819D02*
X155745475Y-141204819D01*
X155745475Y-141204819D02*
X155840713Y-141157200D01*
X155840713Y-141157200D02*
X155888332Y-141109580D01*
X134509819Y-151611905D02*
X133509819Y-151611905D01*
X133509819Y-151611905D02*
X133509819Y-151850000D01*
X133509819Y-151850000D02*
X133557438Y-151992857D01*
X133557438Y-151992857D02*
X133652676Y-152088095D01*
X133652676Y-152088095D02*
X133747914Y-152135714D01*
X133747914Y-152135714D02*
X133938390Y-152183333D01*
X133938390Y-152183333D02*
X134081247Y-152183333D01*
X134081247Y-152183333D02*
X134271723Y-152135714D01*
X134271723Y-152135714D02*
X134366961Y-152088095D01*
X134366961Y-152088095D02*
X134462200Y-151992857D01*
X134462200Y-151992857D02*
X134509819Y-151850000D01*
X134509819Y-151850000D02*
X134509819Y-151611905D01*
X133509819Y-153040476D02*
X133509819Y-152850000D01*
X133509819Y-152850000D02*
X133557438Y-152754762D01*
X133557438Y-152754762D02*
X133605057Y-152707143D01*
X133605057Y-152707143D02*
X133747914Y-152611905D01*
X133747914Y-152611905D02*
X133938390Y-152564286D01*
X133938390Y-152564286D02*
X134319342Y-152564286D01*
X134319342Y-152564286D02*
X134414580Y-152611905D01*
X134414580Y-152611905D02*
X134462200Y-152659524D01*
X134462200Y-152659524D02*
X134509819Y-152754762D01*
X134509819Y-152754762D02*
X134509819Y-152945238D01*
X134509819Y-152945238D02*
X134462200Y-153040476D01*
X134462200Y-153040476D02*
X134414580Y-153088095D01*
X134414580Y-153088095D02*
X134319342Y-153135714D01*
X134319342Y-153135714D02*
X134081247Y-153135714D01*
X134081247Y-153135714D02*
X133986009Y-153088095D01*
X133986009Y-153088095D02*
X133938390Y-153040476D01*
X133938390Y-153040476D02*
X133890771Y-152945238D01*
X133890771Y-152945238D02*
X133890771Y-152754762D01*
X133890771Y-152754762D02*
X133938390Y-152659524D01*
X133938390Y-152659524D02*
X133986009Y-152611905D01*
X133986009Y-152611905D02*
X134081247Y-152564286D01*
X165571666Y-127304819D02*
X165904999Y-126828628D01*
X166143094Y-127304819D02*
X166143094Y-126304819D01*
X166143094Y-126304819D02*
X165762142Y-126304819D01*
X165762142Y-126304819D02*
X165666904Y-126352438D01*
X165666904Y-126352438D02*
X165619285Y-126400057D01*
X165619285Y-126400057D02*
X165571666Y-126495295D01*
X165571666Y-126495295D02*
X165571666Y-126638152D01*
X165571666Y-126638152D02*
X165619285Y-126733390D01*
X165619285Y-126733390D02*
X165666904Y-126781009D01*
X165666904Y-126781009D02*
X165762142Y-126828628D01*
X165762142Y-126828628D02*
X166143094Y-126828628D01*
X165190713Y-126400057D02*
X165143094Y-126352438D01*
X165143094Y-126352438D02*
X165047856Y-126304819D01*
X165047856Y-126304819D02*
X164809761Y-126304819D01*
X164809761Y-126304819D02*
X164714523Y-126352438D01*
X164714523Y-126352438D02*
X164666904Y-126400057D01*
X164666904Y-126400057D02*
X164619285Y-126495295D01*
X164619285Y-126495295D02*
X164619285Y-126590533D01*
X164619285Y-126590533D02*
X164666904Y-126733390D01*
X164666904Y-126733390D02*
X165238332Y-127304819D01*
X165238332Y-127304819D02*
X164619285Y-127304819D01*
X115509819Y-189285714D02*
X114509819Y-189285714D01*
X114509819Y-189285714D02*
X114509819Y-189523809D01*
X114509819Y-189523809D02*
X114557438Y-189666666D01*
X114557438Y-189666666D02*
X114652676Y-189761904D01*
X114652676Y-189761904D02*
X114747914Y-189809523D01*
X114747914Y-189809523D02*
X114938390Y-189857142D01*
X114938390Y-189857142D02*
X115081247Y-189857142D01*
X115081247Y-189857142D02*
X115271723Y-189809523D01*
X115271723Y-189809523D02*
X115366961Y-189761904D01*
X115366961Y-189761904D02*
X115462200Y-189666666D01*
X115462200Y-189666666D02*
X115509819Y-189523809D01*
X115509819Y-189523809D02*
X115509819Y-189285714D01*
X115509819Y-190809523D02*
X115509819Y-190238095D01*
X115509819Y-190523809D02*
X114509819Y-190523809D01*
X114509819Y-190523809D02*
X114652676Y-190428571D01*
X114652676Y-190428571D02*
X114747914Y-190333333D01*
X114747914Y-190333333D02*
X114795533Y-190238095D01*
X114509819Y-191142857D02*
X114509819Y-191761904D01*
X114509819Y-191761904D02*
X114890771Y-191428571D01*
X114890771Y-191428571D02*
X114890771Y-191571428D01*
X114890771Y-191571428D02*
X114938390Y-191666666D01*
X114938390Y-191666666D02*
X114986009Y-191714285D01*
X114986009Y-191714285D02*
X115081247Y-191761904D01*
X115081247Y-191761904D02*
X115319342Y-191761904D01*
X115319342Y-191761904D02*
X115414580Y-191714285D01*
X115414580Y-191714285D02*
X115462200Y-191666666D01*
X115462200Y-191666666D02*
X115509819Y-191571428D01*
X115509819Y-191571428D02*
X115509819Y-191285714D01*
X115509819Y-191285714D02*
X115462200Y-191190476D01*
X115462200Y-191190476D02*
X115414580Y-191142857D01*
X127709819Y-197685714D02*
X126709819Y-197685714D01*
X126709819Y-197685714D02*
X126709819Y-197923809D01*
X126709819Y-197923809D02*
X126757438Y-198066666D01*
X126757438Y-198066666D02*
X126852676Y-198161904D01*
X126852676Y-198161904D02*
X126947914Y-198209523D01*
X126947914Y-198209523D02*
X127138390Y-198257142D01*
X127138390Y-198257142D02*
X127281247Y-198257142D01*
X127281247Y-198257142D02*
X127471723Y-198209523D01*
X127471723Y-198209523D02*
X127566961Y-198161904D01*
X127566961Y-198161904D02*
X127662200Y-198066666D01*
X127662200Y-198066666D02*
X127709819Y-197923809D01*
X127709819Y-197923809D02*
X127709819Y-197685714D01*
X127709819Y-199209523D02*
X127709819Y-198638095D01*
X127709819Y-198923809D02*
X126709819Y-198923809D01*
X126709819Y-198923809D02*
X126852676Y-198828571D01*
X126852676Y-198828571D02*
X126947914Y-198733333D01*
X126947914Y-198733333D02*
X126995533Y-198638095D01*
X127138390Y-199780952D02*
X127090771Y-199685714D01*
X127090771Y-199685714D02*
X127043152Y-199638095D01*
X127043152Y-199638095D02*
X126947914Y-199590476D01*
X126947914Y-199590476D02*
X126900295Y-199590476D01*
X126900295Y-199590476D02*
X126805057Y-199638095D01*
X126805057Y-199638095D02*
X126757438Y-199685714D01*
X126757438Y-199685714D02*
X126709819Y-199780952D01*
X126709819Y-199780952D02*
X126709819Y-199971428D01*
X126709819Y-199971428D02*
X126757438Y-200066666D01*
X126757438Y-200066666D02*
X126805057Y-200114285D01*
X126805057Y-200114285D02*
X126900295Y-200161904D01*
X126900295Y-200161904D02*
X126947914Y-200161904D01*
X126947914Y-200161904D02*
X127043152Y-200114285D01*
X127043152Y-200114285D02*
X127090771Y-200066666D01*
X127090771Y-200066666D02*
X127138390Y-199971428D01*
X127138390Y-199971428D02*
X127138390Y-199780952D01*
X127138390Y-199780952D02*
X127186009Y-199685714D01*
X127186009Y-199685714D02*
X127233628Y-199638095D01*
X127233628Y-199638095D02*
X127328866Y-199590476D01*
X127328866Y-199590476D02*
X127519342Y-199590476D01*
X127519342Y-199590476D02*
X127614580Y-199638095D01*
X127614580Y-199638095D02*
X127662200Y-199685714D01*
X127662200Y-199685714D02*
X127709819Y-199780952D01*
X127709819Y-199780952D02*
X127709819Y-199971428D01*
X127709819Y-199971428D02*
X127662200Y-200066666D01*
X127662200Y-200066666D02*
X127614580Y-200114285D01*
X127614580Y-200114285D02*
X127519342Y-200161904D01*
X127519342Y-200161904D02*
X127328866Y-200161904D01*
X127328866Y-200161904D02*
X127233628Y-200114285D01*
X127233628Y-200114285D02*
X127186009Y-200066666D01*
X127186009Y-200066666D02*
X127138390Y-199971428D01*
X172469285Y-214604819D02*
X172469285Y-213604819D01*
X172469285Y-213604819D02*
X172231190Y-213604819D01*
X172231190Y-213604819D02*
X172088333Y-213652438D01*
X172088333Y-213652438D02*
X171993095Y-213747676D01*
X171993095Y-213747676D02*
X171945476Y-213842914D01*
X171945476Y-213842914D02*
X171897857Y-214033390D01*
X171897857Y-214033390D02*
X171897857Y-214176247D01*
X171897857Y-214176247D02*
X171945476Y-214366723D01*
X171945476Y-214366723D02*
X171993095Y-214461961D01*
X171993095Y-214461961D02*
X172088333Y-214557200D01*
X172088333Y-214557200D02*
X172231190Y-214604819D01*
X172231190Y-214604819D02*
X172469285Y-214604819D01*
X171516904Y-213700057D02*
X171469285Y-213652438D01*
X171469285Y-213652438D02*
X171374047Y-213604819D01*
X171374047Y-213604819D02*
X171135952Y-213604819D01*
X171135952Y-213604819D02*
X171040714Y-213652438D01*
X171040714Y-213652438D02*
X170993095Y-213700057D01*
X170993095Y-213700057D02*
X170945476Y-213795295D01*
X170945476Y-213795295D02*
X170945476Y-213890533D01*
X170945476Y-213890533D02*
X170993095Y-214033390D01*
X170993095Y-214033390D02*
X171564523Y-214604819D01*
X171564523Y-214604819D02*
X170945476Y-214604819D01*
X170040714Y-213604819D02*
X170516904Y-213604819D01*
X170516904Y-213604819D02*
X170564523Y-214081009D01*
X170564523Y-214081009D02*
X170516904Y-214033390D01*
X170516904Y-214033390D02*
X170421666Y-213985771D01*
X170421666Y-213985771D02*
X170183571Y-213985771D01*
X170183571Y-213985771D02*
X170088333Y-214033390D01*
X170088333Y-214033390D02*
X170040714Y-214081009D01*
X170040714Y-214081009D02*
X169993095Y-214176247D01*
X169993095Y-214176247D02*
X169993095Y-214414342D01*
X169993095Y-214414342D02*
X170040714Y-214509580D01*
X170040714Y-214509580D02*
X170088333Y-214557200D01*
X170088333Y-214557200D02*
X170183571Y-214604819D01*
X170183571Y-214604819D02*
X170421666Y-214604819D01*
X170421666Y-214604819D02*
X170516904Y-214557200D01*
X170516904Y-214557200D02*
X170564523Y-214509580D01*
X149121666Y-129054819D02*
X149454999Y-128578628D01*
X149693094Y-129054819D02*
X149693094Y-128054819D01*
X149693094Y-128054819D02*
X149312142Y-128054819D01*
X149312142Y-128054819D02*
X149216904Y-128102438D01*
X149216904Y-128102438D02*
X149169285Y-128150057D01*
X149169285Y-128150057D02*
X149121666Y-128245295D01*
X149121666Y-128245295D02*
X149121666Y-128388152D01*
X149121666Y-128388152D02*
X149169285Y-128483390D01*
X149169285Y-128483390D02*
X149216904Y-128531009D01*
X149216904Y-128531009D02*
X149312142Y-128578628D01*
X149312142Y-128578628D02*
X149693094Y-128578628D01*
X148169285Y-129054819D02*
X148740713Y-129054819D01*
X148454999Y-129054819D02*
X148454999Y-128054819D01*
X148454999Y-128054819D02*
X148550237Y-128197676D01*
X148550237Y-128197676D02*
X148645475Y-128292914D01*
X148645475Y-128292914D02*
X148740713Y-128340533D01*
X153059819Y-151861905D02*
X152059819Y-151861905D01*
X152059819Y-151861905D02*
X152059819Y-152100000D01*
X152059819Y-152100000D02*
X152107438Y-152242857D01*
X152107438Y-152242857D02*
X152202676Y-152338095D01*
X152202676Y-152338095D02*
X152297914Y-152385714D01*
X152297914Y-152385714D02*
X152488390Y-152433333D01*
X152488390Y-152433333D02*
X152631247Y-152433333D01*
X152631247Y-152433333D02*
X152821723Y-152385714D01*
X152821723Y-152385714D02*
X152916961Y-152338095D01*
X152916961Y-152338095D02*
X153012200Y-152242857D01*
X153012200Y-152242857D02*
X153059819Y-152100000D01*
X153059819Y-152100000D02*
X153059819Y-151861905D01*
X152059819Y-152766667D02*
X152059819Y-153433333D01*
X152059819Y-153433333D02*
X153059819Y-153004762D01*
X96509819Y-151611905D02*
X95509819Y-151611905D01*
X95509819Y-151611905D02*
X95509819Y-151850000D01*
X95509819Y-151850000D02*
X95557438Y-151992857D01*
X95557438Y-151992857D02*
X95652676Y-152088095D01*
X95652676Y-152088095D02*
X95747914Y-152135714D01*
X95747914Y-152135714D02*
X95938390Y-152183333D01*
X95938390Y-152183333D02*
X96081247Y-152183333D01*
X96081247Y-152183333D02*
X96271723Y-152135714D01*
X96271723Y-152135714D02*
X96366961Y-152088095D01*
X96366961Y-152088095D02*
X96462200Y-151992857D01*
X96462200Y-151992857D02*
X96509819Y-151850000D01*
X96509819Y-151850000D02*
X96509819Y-151611905D01*
X95843152Y-153040476D02*
X96509819Y-153040476D01*
X95462200Y-152802381D02*
X96176485Y-152564286D01*
X96176485Y-152564286D02*
X96176485Y-153183333D01*
X172419285Y-218454819D02*
X172419285Y-217454819D01*
X172419285Y-217454819D02*
X172181190Y-217454819D01*
X172181190Y-217454819D02*
X172038333Y-217502438D01*
X172038333Y-217502438D02*
X171943095Y-217597676D01*
X171943095Y-217597676D02*
X171895476Y-217692914D01*
X171895476Y-217692914D02*
X171847857Y-217883390D01*
X171847857Y-217883390D02*
X171847857Y-218026247D01*
X171847857Y-218026247D02*
X171895476Y-218216723D01*
X171895476Y-218216723D02*
X171943095Y-218311961D01*
X171943095Y-218311961D02*
X172038333Y-218407200D01*
X172038333Y-218407200D02*
X172181190Y-218454819D01*
X172181190Y-218454819D02*
X172419285Y-218454819D01*
X171466904Y-217550057D02*
X171419285Y-217502438D01*
X171419285Y-217502438D02*
X171324047Y-217454819D01*
X171324047Y-217454819D02*
X171085952Y-217454819D01*
X171085952Y-217454819D02*
X170990714Y-217502438D01*
X170990714Y-217502438D02*
X170943095Y-217550057D01*
X170943095Y-217550057D02*
X170895476Y-217645295D01*
X170895476Y-217645295D02*
X170895476Y-217740533D01*
X170895476Y-217740533D02*
X170943095Y-217883390D01*
X170943095Y-217883390D02*
X171514523Y-218454819D01*
X171514523Y-218454819D02*
X170895476Y-218454819D01*
X170038333Y-217454819D02*
X170228809Y-217454819D01*
X170228809Y-217454819D02*
X170324047Y-217502438D01*
X170324047Y-217502438D02*
X170371666Y-217550057D01*
X170371666Y-217550057D02*
X170466904Y-217692914D01*
X170466904Y-217692914D02*
X170514523Y-217883390D01*
X170514523Y-217883390D02*
X170514523Y-218264342D01*
X170514523Y-218264342D02*
X170466904Y-218359580D01*
X170466904Y-218359580D02*
X170419285Y-218407200D01*
X170419285Y-218407200D02*
X170324047Y-218454819D01*
X170324047Y-218454819D02*
X170133571Y-218454819D01*
X170133571Y-218454819D02*
X170038333Y-218407200D01*
X170038333Y-218407200D02*
X169990714Y-218359580D01*
X169990714Y-218359580D02*
X169943095Y-218264342D01*
X169943095Y-218264342D02*
X169943095Y-218026247D01*
X169943095Y-218026247D02*
X169990714Y-217931009D01*
X169990714Y-217931009D02*
X170038333Y-217883390D01*
X170038333Y-217883390D02*
X170133571Y-217835771D01*
X170133571Y-217835771D02*
X170324047Y-217835771D01*
X170324047Y-217835771D02*
X170419285Y-217883390D01*
X170419285Y-217883390D02*
X170466904Y-217931009D01*
X170466904Y-217931009D02*
X170514523Y-218026247D01*
X156813333Y-123167319D02*
X156813333Y-123881604D01*
X156813333Y-123881604D02*
X156860952Y-124024461D01*
X156860952Y-124024461D02*
X156956190Y-124119700D01*
X156956190Y-124119700D02*
X157099047Y-124167319D01*
X157099047Y-124167319D02*
X157194285Y-124167319D01*
X155813333Y-124167319D02*
X156384761Y-124167319D01*
X156099047Y-124167319D02*
X156099047Y-123167319D01*
X156099047Y-123167319D02*
X156194285Y-123310176D01*
X156194285Y-123310176D02*
X156289523Y-123405414D01*
X156289523Y-123405414D02*
X156384761Y-123453033D01*
X102859819Y-220335714D02*
X101859819Y-220335714D01*
X101859819Y-220335714D02*
X101859819Y-220573809D01*
X101859819Y-220573809D02*
X101907438Y-220716666D01*
X101907438Y-220716666D02*
X102002676Y-220811904D01*
X102002676Y-220811904D02*
X102097914Y-220859523D01*
X102097914Y-220859523D02*
X102288390Y-220907142D01*
X102288390Y-220907142D02*
X102431247Y-220907142D01*
X102431247Y-220907142D02*
X102621723Y-220859523D01*
X102621723Y-220859523D02*
X102716961Y-220811904D01*
X102716961Y-220811904D02*
X102812200Y-220716666D01*
X102812200Y-220716666D02*
X102859819Y-220573809D01*
X102859819Y-220573809D02*
X102859819Y-220335714D01*
X101955057Y-221288095D02*
X101907438Y-221335714D01*
X101907438Y-221335714D02*
X101859819Y-221430952D01*
X101859819Y-221430952D02*
X101859819Y-221669047D01*
X101859819Y-221669047D02*
X101907438Y-221764285D01*
X101907438Y-221764285D02*
X101955057Y-221811904D01*
X101955057Y-221811904D02*
X102050295Y-221859523D01*
X102050295Y-221859523D02*
X102145533Y-221859523D01*
X102145533Y-221859523D02*
X102288390Y-221811904D01*
X102288390Y-221811904D02*
X102859819Y-221240476D01*
X102859819Y-221240476D02*
X102859819Y-221859523D01*
X101859819Y-222478571D02*
X101859819Y-222573809D01*
X101859819Y-222573809D02*
X101907438Y-222669047D01*
X101907438Y-222669047D02*
X101955057Y-222716666D01*
X101955057Y-222716666D02*
X102050295Y-222764285D01*
X102050295Y-222764285D02*
X102240771Y-222811904D01*
X102240771Y-222811904D02*
X102478866Y-222811904D01*
X102478866Y-222811904D02*
X102669342Y-222764285D01*
X102669342Y-222764285D02*
X102764580Y-222716666D01*
X102764580Y-222716666D02*
X102812200Y-222669047D01*
X102812200Y-222669047D02*
X102859819Y-222573809D01*
X102859819Y-222573809D02*
X102859819Y-222478571D01*
X102859819Y-222478571D02*
X102812200Y-222383333D01*
X102812200Y-222383333D02*
X102764580Y-222335714D01*
X102764580Y-222335714D02*
X102669342Y-222288095D01*
X102669342Y-222288095D02*
X102478866Y-222240476D01*
X102478866Y-222240476D02*
X102240771Y-222240476D01*
X102240771Y-222240476D02*
X102050295Y-222288095D01*
X102050295Y-222288095D02*
X101955057Y-222335714D01*
X101955057Y-222335714D02*
X101907438Y-222383333D01*
X101907438Y-222383333D02*
X101859819Y-222478571D01*
X162221666Y-207209580D02*
X162269285Y-207257200D01*
X162269285Y-207257200D02*
X162412142Y-207304819D01*
X162412142Y-207304819D02*
X162507380Y-207304819D01*
X162507380Y-207304819D02*
X162650237Y-207257200D01*
X162650237Y-207257200D02*
X162745475Y-207161961D01*
X162745475Y-207161961D02*
X162793094Y-207066723D01*
X162793094Y-207066723D02*
X162840713Y-206876247D01*
X162840713Y-206876247D02*
X162840713Y-206733390D01*
X162840713Y-206733390D02*
X162793094Y-206542914D01*
X162793094Y-206542914D02*
X162745475Y-206447676D01*
X162745475Y-206447676D02*
X162650237Y-206352438D01*
X162650237Y-206352438D02*
X162507380Y-206304819D01*
X162507380Y-206304819D02*
X162412142Y-206304819D01*
X162412142Y-206304819D02*
X162269285Y-206352438D01*
X162269285Y-206352438D02*
X162221666Y-206400057D01*
X161364523Y-206638152D02*
X161364523Y-207304819D01*
X161602618Y-206257200D02*
X161840713Y-206971485D01*
X161840713Y-206971485D02*
X161221666Y-206971485D01*
X153988333Y-140706009D02*
X154321666Y-140706009D01*
X154321666Y-141229819D02*
X154321666Y-140229819D01*
X154321666Y-140229819D02*
X153845476Y-140229819D01*
X152940714Y-141229819D02*
X153512142Y-141229819D01*
X153226428Y-141229819D02*
X153226428Y-140229819D01*
X153226428Y-140229819D02*
X153321666Y-140372676D01*
X153321666Y-140372676D02*
X153416904Y-140467914D01*
X153416904Y-140467914D02*
X153512142Y-140515533D01*
X157684166Y-217159580D02*
X157731785Y-217207200D01*
X157731785Y-217207200D02*
X157874642Y-217254819D01*
X157874642Y-217254819D02*
X157969880Y-217254819D01*
X157969880Y-217254819D02*
X158112737Y-217207200D01*
X158112737Y-217207200D02*
X158207975Y-217111961D01*
X158207975Y-217111961D02*
X158255594Y-217016723D01*
X158255594Y-217016723D02*
X158303213Y-216826247D01*
X158303213Y-216826247D02*
X158303213Y-216683390D01*
X158303213Y-216683390D02*
X158255594Y-216492914D01*
X158255594Y-216492914D02*
X158207975Y-216397676D01*
X158207975Y-216397676D02*
X158112737Y-216302438D01*
X158112737Y-216302438D02*
X157969880Y-216254819D01*
X157969880Y-216254819D02*
X157874642Y-216254819D01*
X157874642Y-216254819D02*
X157731785Y-216302438D01*
X157731785Y-216302438D02*
X157684166Y-216350057D01*
X157350832Y-216254819D02*
X156731785Y-216254819D01*
X156731785Y-216254819D02*
X157065118Y-216635771D01*
X157065118Y-216635771D02*
X156922261Y-216635771D01*
X156922261Y-216635771D02*
X156827023Y-216683390D01*
X156827023Y-216683390D02*
X156779404Y-216731009D01*
X156779404Y-216731009D02*
X156731785Y-216826247D01*
X156731785Y-216826247D02*
X156731785Y-217064342D01*
X156731785Y-217064342D02*
X156779404Y-217159580D01*
X156779404Y-217159580D02*
X156827023Y-217207200D01*
X156827023Y-217207200D02*
X156922261Y-217254819D01*
X156922261Y-217254819D02*
X157207975Y-217254819D01*
X157207975Y-217254819D02*
X157303213Y-217207200D01*
X157303213Y-217207200D02*
X157350832Y-217159580D01*
X125309819Y-132611905D02*
X124309819Y-132611905D01*
X124309819Y-132611905D02*
X124309819Y-132850000D01*
X124309819Y-132850000D02*
X124357438Y-132992857D01*
X124357438Y-132992857D02*
X124452676Y-133088095D01*
X124452676Y-133088095D02*
X124547914Y-133135714D01*
X124547914Y-133135714D02*
X124738390Y-133183333D01*
X124738390Y-133183333D02*
X124881247Y-133183333D01*
X124881247Y-133183333D02*
X125071723Y-133135714D01*
X125071723Y-133135714D02*
X125166961Y-133088095D01*
X125166961Y-133088095D02*
X125262200Y-132992857D01*
X125262200Y-132992857D02*
X125309819Y-132850000D01*
X125309819Y-132850000D02*
X125309819Y-132611905D01*
X124405057Y-133564286D02*
X124357438Y-133611905D01*
X124357438Y-133611905D02*
X124309819Y-133707143D01*
X124309819Y-133707143D02*
X124309819Y-133945238D01*
X124309819Y-133945238D02*
X124357438Y-134040476D01*
X124357438Y-134040476D02*
X124405057Y-134088095D01*
X124405057Y-134088095D02*
X124500295Y-134135714D01*
X124500295Y-134135714D02*
X124595533Y-134135714D01*
X124595533Y-134135714D02*
X124738390Y-134088095D01*
X124738390Y-134088095D02*
X125309819Y-133516667D01*
X125309819Y-133516667D02*
X125309819Y-134135714D01*
X96509819Y-170611905D02*
X95509819Y-170611905D01*
X95509819Y-170611905D02*
X95509819Y-170850000D01*
X95509819Y-170850000D02*
X95557438Y-170992857D01*
X95557438Y-170992857D02*
X95652676Y-171088095D01*
X95652676Y-171088095D02*
X95747914Y-171135714D01*
X95747914Y-171135714D02*
X95938390Y-171183333D01*
X95938390Y-171183333D02*
X96081247Y-171183333D01*
X96081247Y-171183333D02*
X96271723Y-171135714D01*
X96271723Y-171135714D02*
X96366961Y-171088095D01*
X96366961Y-171088095D02*
X96462200Y-170992857D01*
X96462200Y-170992857D02*
X96509819Y-170850000D01*
X96509819Y-170850000D02*
X96509819Y-170611905D01*
X95938390Y-171754762D02*
X95890771Y-171659524D01*
X95890771Y-171659524D02*
X95843152Y-171611905D01*
X95843152Y-171611905D02*
X95747914Y-171564286D01*
X95747914Y-171564286D02*
X95700295Y-171564286D01*
X95700295Y-171564286D02*
X95605057Y-171611905D01*
X95605057Y-171611905D02*
X95557438Y-171659524D01*
X95557438Y-171659524D02*
X95509819Y-171754762D01*
X95509819Y-171754762D02*
X95509819Y-171945238D01*
X95509819Y-171945238D02*
X95557438Y-172040476D01*
X95557438Y-172040476D02*
X95605057Y-172088095D01*
X95605057Y-172088095D02*
X95700295Y-172135714D01*
X95700295Y-172135714D02*
X95747914Y-172135714D01*
X95747914Y-172135714D02*
X95843152Y-172088095D01*
X95843152Y-172088095D02*
X95890771Y-172040476D01*
X95890771Y-172040476D02*
X95938390Y-171945238D01*
X95938390Y-171945238D02*
X95938390Y-171754762D01*
X95938390Y-171754762D02*
X95986009Y-171659524D01*
X95986009Y-171659524D02*
X96033628Y-171611905D01*
X96033628Y-171611905D02*
X96128866Y-171564286D01*
X96128866Y-171564286D02*
X96319342Y-171564286D01*
X96319342Y-171564286D02*
X96414580Y-171611905D01*
X96414580Y-171611905D02*
X96462200Y-171659524D01*
X96462200Y-171659524D02*
X96509819Y-171754762D01*
X96509819Y-171754762D02*
X96509819Y-171945238D01*
X96509819Y-171945238D02*
X96462200Y-172040476D01*
X96462200Y-172040476D02*
X96414580Y-172088095D01*
X96414580Y-172088095D02*
X96319342Y-172135714D01*
X96319342Y-172135714D02*
X96128866Y-172135714D01*
X96128866Y-172135714D02*
X96033628Y-172088095D01*
X96033628Y-172088095D02*
X95986009Y-172040476D01*
X95986009Y-172040476D02*
X95938390Y-171945238D01*
X159271666Y-232559580D02*
X159319285Y-232607200D01*
X159319285Y-232607200D02*
X159462142Y-232654819D01*
X159462142Y-232654819D02*
X159557380Y-232654819D01*
X159557380Y-232654819D02*
X159700237Y-232607200D01*
X159700237Y-232607200D02*
X159795475Y-232511961D01*
X159795475Y-232511961D02*
X159843094Y-232416723D01*
X159843094Y-232416723D02*
X159890713Y-232226247D01*
X159890713Y-232226247D02*
X159890713Y-232083390D01*
X159890713Y-232083390D02*
X159843094Y-231892914D01*
X159843094Y-231892914D02*
X159795475Y-231797676D01*
X159795475Y-231797676D02*
X159700237Y-231702438D01*
X159700237Y-231702438D02*
X159557380Y-231654819D01*
X159557380Y-231654819D02*
X159462142Y-231654819D01*
X159462142Y-231654819D02*
X159319285Y-231702438D01*
X159319285Y-231702438D02*
X159271666Y-231750057D01*
X158938332Y-231654819D02*
X158271666Y-231654819D01*
X158271666Y-231654819D02*
X158700237Y-232654819D01*
X152509819Y-170135714D02*
X151509819Y-170135714D01*
X151509819Y-170135714D02*
X151509819Y-170373809D01*
X151509819Y-170373809D02*
X151557438Y-170516666D01*
X151557438Y-170516666D02*
X151652676Y-170611904D01*
X151652676Y-170611904D02*
X151747914Y-170659523D01*
X151747914Y-170659523D02*
X151938390Y-170707142D01*
X151938390Y-170707142D02*
X152081247Y-170707142D01*
X152081247Y-170707142D02*
X152271723Y-170659523D01*
X152271723Y-170659523D02*
X152366961Y-170611904D01*
X152366961Y-170611904D02*
X152462200Y-170516666D01*
X152462200Y-170516666D02*
X152509819Y-170373809D01*
X152509819Y-170373809D02*
X152509819Y-170135714D01*
X152509819Y-171659523D02*
X152509819Y-171088095D01*
X152509819Y-171373809D02*
X151509819Y-171373809D01*
X151509819Y-171373809D02*
X151652676Y-171278571D01*
X151652676Y-171278571D02*
X151747914Y-171183333D01*
X151747914Y-171183333D02*
X151795533Y-171088095D01*
X152509819Y-172611904D02*
X152509819Y-172040476D01*
X152509819Y-172326190D02*
X151509819Y-172326190D01*
X151509819Y-172326190D02*
X151652676Y-172230952D01*
X151652676Y-172230952D02*
X151747914Y-172135714D01*
X151747914Y-172135714D02*
X151795533Y-172040476D01*
X170169285Y-165604819D02*
X170169285Y-164604819D01*
X170169285Y-164604819D02*
X169931190Y-164604819D01*
X169931190Y-164604819D02*
X169788333Y-164652438D01*
X169788333Y-164652438D02*
X169693095Y-164747676D01*
X169693095Y-164747676D02*
X169645476Y-164842914D01*
X169645476Y-164842914D02*
X169597857Y-165033390D01*
X169597857Y-165033390D02*
X169597857Y-165176247D01*
X169597857Y-165176247D02*
X169645476Y-165366723D01*
X169645476Y-165366723D02*
X169693095Y-165461961D01*
X169693095Y-165461961D02*
X169788333Y-165557200D01*
X169788333Y-165557200D02*
X169931190Y-165604819D01*
X169931190Y-165604819D02*
X170169285Y-165604819D01*
X169216904Y-164700057D02*
X169169285Y-164652438D01*
X169169285Y-164652438D02*
X169074047Y-164604819D01*
X169074047Y-164604819D02*
X168835952Y-164604819D01*
X168835952Y-164604819D02*
X168740714Y-164652438D01*
X168740714Y-164652438D02*
X168693095Y-164700057D01*
X168693095Y-164700057D02*
X168645476Y-164795295D01*
X168645476Y-164795295D02*
X168645476Y-164890533D01*
X168645476Y-164890533D02*
X168693095Y-165033390D01*
X168693095Y-165033390D02*
X169264523Y-165604819D01*
X169264523Y-165604819D02*
X168645476Y-165604819D01*
X168312142Y-164604819D02*
X167693095Y-164604819D01*
X167693095Y-164604819D02*
X168026428Y-164985771D01*
X168026428Y-164985771D02*
X167883571Y-164985771D01*
X167883571Y-164985771D02*
X167788333Y-165033390D01*
X167788333Y-165033390D02*
X167740714Y-165081009D01*
X167740714Y-165081009D02*
X167693095Y-165176247D01*
X167693095Y-165176247D02*
X167693095Y-165414342D01*
X167693095Y-165414342D02*
X167740714Y-165509580D01*
X167740714Y-165509580D02*
X167788333Y-165557200D01*
X167788333Y-165557200D02*
X167883571Y-165604819D01*
X167883571Y-165604819D02*
X168169285Y-165604819D01*
X168169285Y-165604819D02*
X168264523Y-165557200D01*
X168264523Y-165557200D02*
X168312142Y-165509580D01*
X157316904Y-134954819D02*
X157316904Y-135764342D01*
X157316904Y-135764342D02*
X157269285Y-135859580D01*
X157269285Y-135859580D02*
X157221666Y-135907200D01*
X157221666Y-135907200D02*
X157126428Y-135954819D01*
X157126428Y-135954819D02*
X156935952Y-135954819D01*
X156935952Y-135954819D02*
X156840714Y-135907200D01*
X156840714Y-135907200D02*
X156793095Y-135859580D01*
X156793095Y-135859580D02*
X156745476Y-135764342D01*
X156745476Y-135764342D02*
X156745476Y-134954819D01*
X156316904Y-135050057D02*
X156269285Y-135002438D01*
X156269285Y-135002438D02*
X156174047Y-134954819D01*
X156174047Y-134954819D02*
X155935952Y-134954819D01*
X155935952Y-134954819D02*
X155840714Y-135002438D01*
X155840714Y-135002438D02*
X155793095Y-135050057D01*
X155793095Y-135050057D02*
X155745476Y-135145295D01*
X155745476Y-135145295D02*
X155745476Y-135240533D01*
X155745476Y-135240533D02*
X155793095Y-135383390D01*
X155793095Y-135383390D02*
X156364523Y-135954819D01*
X156364523Y-135954819D02*
X155745476Y-135954819D01*
X157621666Y-220254819D02*
X157954999Y-219778628D01*
X158193094Y-220254819D02*
X158193094Y-219254819D01*
X158193094Y-219254819D02*
X157812142Y-219254819D01*
X157812142Y-219254819D02*
X157716904Y-219302438D01*
X157716904Y-219302438D02*
X157669285Y-219350057D01*
X157669285Y-219350057D02*
X157621666Y-219445295D01*
X157621666Y-219445295D02*
X157621666Y-219588152D01*
X157621666Y-219588152D02*
X157669285Y-219683390D01*
X157669285Y-219683390D02*
X157716904Y-219731009D01*
X157716904Y-219731009D02*
X157812142Y-219778628D01*
X157812142Y-219778628D02*
X158193094Y-219778628D01*
X156716904Y-219254819D02*
X157193094Y-219254819D01*
X157193094Y-219254819D02*
X157240713Y-219731009D01*
X157240713Y-219731009D02*
X157193094Y-219683390D01*
X157193094Y-219683390D02*
X157097856Y-219635771D01*
X157097856Y-219635771D02*
X156859761Y-219635771D01*
X156859761Y-219635771D02*
X156764523Y-219683390D01*
X156764523Y-219683390D02*
X156716904Y-219731009D01*
X156716904Y-219731009D02*
X156669285Y-219826247D01*
X156669285Y-219826247D02*
X156669285Y-220064342D01*
X156669285Y-220064342D02*
X156716904Y-220159580D01*
X156716904Y-220159580D02*
X156764523Y-220207200D01*
X156764523Y-220207200D02*
X156859761Y-220254819D01*
X156859761Y-220254819D02*
X157097856Y-220254819D01*
X157097856Y-220254819D02*
X157193094Y-220207200D01*
X157193094Y-220207200D02*
X157240713Y-220159580D01*
X131159819Y-220335714D02*
X130159819Y-220335714D01*
X130159819Y-220335714D02*
X130159819Y-220573809D01*
X130159819Y-220573809D02*
X130207438Y-220716666D01*
X130207438Y-220716666D02*
X130302676Y-220811904D01*
X130302676Y-220811904D02*
X130397914Y-220859523D01*
X130397914Y-220859523D02*
X130588390Y-220907142D01*
X130588390Y-220907142D02*
X130731247Y-220907142D01*
X130731247Y-220907142D02*
X130921723Y-220859523D01*
X130921723Y-220859523D02*
X131016961Y-220811904D01*
X131016961Y-220811904D02*
X131112200Y-220716666D01*
X131112200Y-220716666D02*
X131159819Y-220573809D01*
X131159819Y-220573809D02*
X131159819Y-220335714D01*
X130255057Y-221288095D02*
X130207438Y-221335714D01*
X130207438Y-221335714D02*
X130159819Y-221430952D01*
X130159819Y-221430952D02*
X130159819Y-221669047D01*
X130159819Y-221669047D02*
X130207438Y-221764285D01*
X130207438Y-221764285D02*
X130255057Y-221811904D01*
X130255057Y-221811904D02*
X130350295Y-221859523D01*
X130350295Y-221859523D02*
X130445533Y-221859523D01*
X130445533Y-221859523D02*
X130588390Y-221811904D01*
X130588390Y-221811904D02*
X131159819Y-221240476D01*
X131159819Y-221240476D02*
X131159819Y-221859523D01*
X131159819Y-222811904D02*
X131159819Y-222240476D01*
X131159819Y-222526190D02*
X130159819Y-222526190D01*
X130159819Y-222526190D02*
X130302676Y-222430952D01*
X130302676Y-222430952D02*
X130397914Y-222335714D01*
X130397914Y-222335714D02*
X130445533Y-222240476D01*
X134509819Y-170135714D02*
X133509819Y-170135714D01*
X133509819Y-170135714D02*
X133509819Y-170373809D01*
X133509819Y-170373809D02*
X133557438Y-170516666D01*
X133557438Y-170516666D02*
X133652676Y-170611904D01*
X133652676Y-170611904D02*
X133747914Y-170659523D01*
X133747914Y-170659523D02*
X133938390Y-170707142D01*
X133938390Y-170707142D02*
X134081247Y-170707142D01*
X134081247Y-170707142D02*
X134271723Y-170659523D01*
X134271723Y-170659523D02*
X134366961Y-170611904D01*
X134366961Y-170611904D02*
X134462200Y-170516666D01*
X134462200Y-170516666D02*
X134509819Y-170373809D01*
X134509819Y-170373809D02*
X134509819Y-170135714D01*
X134509819Y-171659523D02*
X134509819Y-171088095D01*
X134509819Y-171373809D02*
X133509819Y-171373809D01*
X133509819Y-171373809D02*
X133652676Y-171278571D01*
X133652676Y-171278571D02*
X133747914Y-171183333D01*
X133747914Y-171183333D02*
X133795533Y-171088095D01*
X133509819Y-172278571D02*
X133509819Y-172373809D01*
X133509819Y-172373809D02*
X133557438Y-172469047D01*
X133557438Y-172469047D02*
X133605057Y-172516666D01*
X133605057Y-172516666D02*
X133700295Y-172564285D01*
X133700295Y-172564285D02*
X133890771Y-172611904D01*
X133890771Y-172611904D02*
X134128866Y-172611904D01*
X134128866Y-172611904D02*
X134319342Y-172564285D01*
X134319342Y-172564285D02*
X134414580Y-172516666D01*
X134414580Y-172516666D02*
X134462200Y-172469047D01*
X134462200Y-172469047D02*
X134509819Y-172373809D01*
X134509819Y-172373809D02*
X134509819Y-172278571D01*
X134509819Y-172278571D02*
X134462200Y-172183333D01*
X134462200Y-172183333D02*
X134414580Y-172135714D01*
X134414580Y-172135714D02*
X134319342Y-172088095D01*
X134319342Y-172088095D02*
X134128866Y-172040476D01*
X134128866Y-172040476D02*
X133890771Y-172040476D01*
X133890771Y-172040476D02*
X133700295Y-172088095D01*
X133700295Y-172088095D02*
X133605057Y-172135714D01*
X133605057Y-172135714D02*
X133557438Y-172183333D01*
X133557438Y-172183333D02*
X133509819Y-172278571D01*
X134509819Y-189285714D02*
X133509819Y-189285714D01*
X133509819Y-189285714D02*
X133509819Y-189523809D01*
X133509819Y-189523809D02*
X133557438Y-189666666D01*
X133557438Y-189666666D02*
X133652676Y-189761904D01*
X133652676Y-189761904D02*
X133747914Y-189809523D01*
X133747914Y-189809523D02*
X133938390Y-189857142D01*
X133938390Y-189857142D02*
X134081247Y-189857142D01*
X134081247Y-189857142D02*
X134271723Y-189809523D01*
X134271723Y-189809523D02*
X134366961Y-189761904D01*
X134366961Y-189761904D02*
X134462200Y-189666666D01*
X134462200Y-189666666D02*
X134509819Y-189523809D01*
X134509819Y-189523809D02*
X134509819Y-189285714D01*
X134509819Y-190809523D02*
X134509819Y-190238095D01*
X134509819Y-190523809D02*
X133509819Y-190523809D01*
X133509819Y-190523809D02*
X133652676Y-190428571D01*
X133652676Y-190428571D02*
X133747914Y-190333333D01*
X133747914Y-190333333D02*
X133795533Y-190238095D01*
X133843152Y-191666666D02*
X134509819Y-191666666D01*
X133462200Y-191428571D02*
X134176485Y-191190476D01*
X134176485Y-191190476D02*
X134176485Y-191809523D01*
X85459819Y-198085714D02*
X84459819Y-198085714D01*
X84459819Y-198085714D02*
X84459819Y-198323809D01*
X84459819Y-198323809D02*
X84507438Y-198466666D01*
X84507438Y-198466666D02*
X84602676Y-198561904D01*
X84602676Y-198561904D02*
X84697914Y-198609523D01*
X84697914Y-198609523D02*
X84888390Y-198657142D01*
X84888390Y-198657142D02*
X85031247Y-198657142D01*
X85031247Y-198657142D02*
X85221723Y-198609523D01*
X85221723Y-198609523D02*
X85316961Y-198561904D01*
X85316961Y-198561904D02*
X85412200Y-198466666D01*
X85412200Y-198466666D02*
X85459819Y-198323809D01*
X85459819Y-198323809D02*
X85459819Y-198085714D01*
X85459819Y-199609523D02*
X85459819Y-199038095D01*
X85459819Y-199323809D02*
X84459819Y-199323809D01*
X84459819Y-199323809D02*
X84602676Y-199228571D01*
X84602676Y-199228571D02*
X84697914Y-199133333D01*
X84697914Y-199133333D02*
X84745533Y-199038095D01*
X84459819Y-200466666D02*
X84459819Y-200276190D01*
X84459819Y-200276190D02*
X84507438Y-200180952D01*
X84507438Y-200180952D02*
X84555057Y-200133333D01*
X84555057Y-200133333D02*
X84697914Y-200038095D01*
X84697914Y-200038095D02*
X84888390Y-199990476D01*
X84888390Y-199990476D02*
X85269342Y-199990476D01*
X85269342Y-199990476D02*
X85364580Y-200038095D01*
X85364580Y-200038095D02*
X85412200Y-200085714D01*
X85412200Y-200085714D02*
X85459819Y-200180952D01*
X85459819Y-200180952D02*
X85459819Y-200371428D01*
X85459819Y-200371428D02*
X85412200Y-200466666D01*
X85412200Y-200466666D02*
X85364580Y-200514285D01*
X85364580Y-200514285D02*
X85269342Y-200561904D01*
X85269342Y-200561904D02*
X85031247Y-200561904D01*
X85031247Y-200561904D02*
X84936009Y-200514285D01*
X84936009Y-200514285D02*
X84888390Y-200466666D01*
X84888390Y-200466666D02*
X84840771Y-200371428D01*
X84840771Y-200371428D02*
X84840771Y-200180952D01*
X84840771Y-200180952D02*
X84888390Y-200085714D01*
X84888390Y-200085714D02*
X84936009Y-200038095D01*
X84936009Y-200038095D02*
X85031247Y-199990476D01*
X115509819Y-170611905D02*
X114509819Y-170611905D01*
X114509819Y-170611905D02*
X114509819Y-170850000D01*
X114509819Y-170850000D02*
X114557438Y-170992857D01*
X114557438Y-170992857D02*
X114652676Y-171088095D01*
X114652676Y-171088095D02*
X114747914Y-171135714D01*
X114747914Y-171135714D02*
X114938390Y-171183333D01*
X114938390Y-171183333D02*
X115081247Y-171183333D01*
X115081247Y-171183333D02*
X115271723Y-171135714D01*
X115271723Y-171135714D02*
X115366961Y-171088095D01*
X115366961Y-171088095D02*
X115462200Y-170992857D01*
X115462200Y-170992857D02*
X115509819Y-170850000D01*
X115509819Y-170850000D02*
X115509819Y-170611905D01*
X115509819Y-171659524D02*
X115509819Y-171850000D01*
X115509819Y-171850000D02*
X115462200Y-171945238D01*
X115462200Y-171945238D02*
X115414580Y-171992857D01*
X115414580Y-171992857D02*
X115271723Y-172088095D01*
X115271723Y-172088095D02*
X115081247Y-172135714D01*
X115081247Y-172135714D02*
X114700295Y-172135714D01*
X114700295Y-172135714D02*
X114605057Y-172088095D01*
X114605057Y-172088095D02*
X114557438Y-172040476D01*
X114557438Y-172040476D02*
X114509819Y-171945238D01*
X114509819Y-171945238D02*
X114509819Y-171754762D01*
X114509819Y-171754762D02*
X114557438Y-171659524D01*
X114557438Y-171659524D02*
X114605057Y-171611905D01*
X114605057Y-171611905D02*
X114700295Y-171564286D01*
X114700295Y-171564286D02*
X114938390Y-171564286D01*
X114938390Y-171564286D02*
X115033628Y-171611905D01*
X115033628Y-171611905D02*
X115081247Y-171659524D01*
X115081247Y-171659524D02*
X115128866Y-171754762D01*
X115128866Y-171754762D02*
X115128866Y-171945238D01*
X115128866Y-171945238D02*
X115081247Y-172040476D01*
X115081247Y-172040476D02*
X115033628Y-172088095D01*
X115033628Y-172088095D02*
X114938390Y-172135714D01*
X139719285Y-212804819D02*
X139719285Y-211804819D01*
X139719285Y-211804819D02*
X139481190Y-211804819D01*
X139481190Y-211804819D02*
X139338333Y-211852438D01*
X139338333Y-211852438D02*
X139243095Y-211947676D01*
X139243095Y-211947676D02*
X139195476Y-212042914D01*
X139195476Y-212042914D02*
X139147857Y-212233390D01*
X139147857Y-212233390D02*
X139147857Y-212376247D01*
X139147857Y-212376247D02*
X139195476Y-212566723D01*
X139195476Y-212566723D02*
X139243095Y-212661961D01*
X139243095Y-212661961D02*
X139338333Y-212757200D01*
X139338333Y-212757200D02*
X139481190Y-212804819D01*
X139481190Y-212804819D02*
X139719285Y-212804819D01*
X138195476Y-212804819D02*
X138766904Y-212804819D01*
X138481190Y-212804819D02*
X138481190Y-211804819D01*
X138481190Y-211804819D02*
X138576428Y-211947676D01*
X138576428Y-211947676D02*
X138671666Y-212042914D01*
X138671666Y-212042914D02*
X138766904Y-212090533D01*
X137719285Y-212804819D02*
X137528809Y-212804819D01*
X137528809Y-212804819D02*
X137433571Y-212757200D01*
X137433571Y-212757200D02*
X137385952Y-212709580D01*
X137385952Y-212709580D02*
X137290714Y-212566723D01*
X137290714Y-212566723D02*
X137243095Y-212376247D01*
X137243095Y-212376247D02*
X137243095Y-211995295D01*
X137243095Y-211995295D02*
X137290714Y-211900057D01*
X137290714Y-211900057D02*
X137338333Y-211852438D01*
X137338333Y-211852438D02*
X137433571Y-211804819D01*
X137433571Y-211804819D02*
X137624047Y-211804819D01*
X137624047Y-211804819D02*
X137719285Y-211852438D01*
X137719285Y-211852438D02*
X137766904Y-211900057D01*
X137766904Y-211900057D02*
X137814523Y-211995295D01*
X137814523Y-211995295D02*
X137814523Y-212233390D01*
X137814523Y-212233390D02*
X137766904Y-212328628D01*
X137766904Y-212328628D02*
X137719285Y-212376247D01*
X137719285Y-212376247D02*
X137624047Y-212423866D01*
X137624047Y-212423866D02*
X137433571Y-212423866D01*
X137433571Y-212423866D02*
X137338333Y-212376247D01*
X137338333Y-212376247D02*
X137290714Y-212328628D01*
X137290714Y-212328628D02*
X137243095Y-212233390D01*
X152309819Y-186935714D02*
X151309819Y-186935714D01*
X151309819Y-186935714D02*
X151309819Y-187173809D01*
X151309819Y-187173809D02*
X151357438Y-187316666D01*
X151357438Y-187316666D02*
X151452676Y-187411904D01*
X151452676Y-187411904D02*
X151547914Y-187459523D01*
X151547914Y-187459523D02*
X151738390Y-187507142D01*
X151738390Y-187507142D02*
X151881247Y-187507142D01*
X151881247Y-187507142D02*
X152071723Y-187459523D01*
X152071723Y-187459523D02*
X152166961Y-187411904D01*
X152166961Y-187411904D02*
X152262200Y-187316666D01*
X152262200Y-187316666D02*
X152309819Y-187173809D01*
X152309819Y-187173809D02*
X152309819Y-186935714D01*
X152309819Y-188459523D02*
X152309819Y-187888095D01*
X152309819Y-188173809D02*
X151309819Y-188173809D01*
X151309819Y-188173809D02*
X151452676Y-188078571D01*
X151452676Y-188078571D02*
X151547914Y-187983333D01*
X151547914Y-187983333D02*
X151595533Y-187888095D01*
X151309819Y-189364285D02*
X151309819Y-188888095D01*
X151309819Y-188888095D02*
X151786009Y-188840476D01*
X151786009Y-188840476D02*
X151738390Y-188888095D01*
X151738390Y-188888095D02*
X151690771Y-188983333D01*
X151690771Y-188983333D02*
X151690771Y-189221428D01*
X151690771Y-189221428D02*
X151738390Y-189316666D01*
X151738390Y-189316666D02*
X151786009Y-189364285D01*
X151786009Y-189364285D02*
X151881247Y-189411904D01*
X151881247Y-189411904D02*
X152119342Y-189411904D01*
X152119342Y-189411904D02*
X152214580Y-189364285D01*
X152214580Y-189364285D02*
X152262200Y-189316666D01*
X152262200Y-189316666D02*
X152309819Y-189221428D01*
X152309819Y-189221428D02*
X152309819Y-188983333D01*
X152309819Y-188983333D02*
X152262200Y-188888095D01*
X152262200Y-188888095D02*
X152214580Y-188840476D01*
X96509819Y-132611905D02*
X95509819Y-132611905D01*
X95509819Y-132611905D02*
X95509819Y-132850000D01*
X95509819Y-132850000D02*
X95557438Y-132992857D01*
X95557438Y-132992857D02*
X95652676Y-133088095D01*
X95652676Y-133088095D02*
X95747914Y-133135714D01*
X95747914Y-133135714D02*
X95938390Y-133183333D01*
X95938390Y-133183333D02*
X96081247Y-133183333D01*
X96081247Y-133183333D02*
X96271723Y-133135714D01*
X96271723Y-133135714D02*
X96366961Y-133088095D01*
X96366961Y-133088095D02*
X96462200Y-132992857D01*
X96462200Y-132992857D02*
X96509819Y-132850000D01*
X96509819Y-132850000D02*
X96509819Y-132611905D01*
X96509819Y-134135714D02*
X96509819Y-133564286D01*
X96509819Y-133850000D02*
X95509819Y-133850000D01*
X95509819Y-133850000D02*
X95652676Y-133754762D01*
X95652676Y-133754762D02*
X95747914Y-133659524D01*
X95747914Y-133659524D02*
X95795533Y-133564286D01*
X157281190Y-211328628D02*
X157281190Y-211804819D01*
X157614523Y-210804819D02*
X157281190Y-211328628D01*
X157281190Y-211328628D02*
X156947857Y-210804819D01*
X156090714Y-211804819D02*
X156662142Y-211804819D01*
X156376428Y-211804819D02*
X156376428Y-210804819D01*
X156376428Y-210804819D02*
X156471666Y-210947676D01*
X156471666Y-210947676D02*
X156566904Y-211042914D01*
X156566904Y-211042914D02*
X156662142Y-211090533D01*
X170219285Y-146704819D02*
X170219285Y-145704819D01*
X170219285Y-145704819D02*
X169981190Y-145704819D01*
X169981190Y-145704819D02*
X169838333Y-145752438D01*
X169838333Y-145752438D02*
X169743095Y-145847676D01*
X169743095Y-145847676D02*
X169695476Y-145942914D01*
X169695476Y-145942914D02*
X169647857Y-146133390D01*
X169647857Y-146133390D02*
X169647857Y-146276247D01*
X169647857Y-146276247D02*
X169695476Y-146466723D01*
X169695476Y-146466723D02*
X169743095Y-146561961D01*
X169743095Y-146561961D02*
X169838333Y-146657200D01*
X169838333Y-146657200D02*
X169981190Y-146704819D01*
X169981190Y-146704819D02*
X170219285Y-146704819D01*
X169266904Y-145800057D02*
X169219285Y-145752438D01*
X169219285Y-145752438D02*
X169124047Y-145704819D01*
X169124047Y-145704819D02*
X168885952Y-145704819D01*
X168885952Y-145704819D02*
X168790714Y-145752438D01*
X168790714Y-145752438D02*
X168743095Y-145800057D01*
X168743095Y-145800057D02*
X168695476Y-145895295D01*
X168695476Y-145895295D02*
X168695476Y-145990533D01*
X168695476Y-145990533D02*
X168743095Y-146133390D01*
X168743095Y-146133390D02*
X169314523Y-146704819D01*
X169314523Y-146704819D02*
X168695476Y-146704819D01*
X168314523Y-145800057D02*
X168266904Y-145752438D01*
X168266904Y-145752438D02*
X168171666Y-145704819D01*
X168171666Y-145704819D02*
X167933571Y-145704819D01*
X167933571Y-145704819D02*
X167838333Y-145752438D01*
X167838333Y-145752438D02*
X167790714Y-145800057D01*
X167790714Y-145800057D02*
X167743095Y-145895295D01*
X167743095Y-145895295D02*
X167743095Y-145990533D01*
X167743095Y-145990533D02*
X167790714Y-146133390D01*
X167790714Y-146133390D02*
X168362142Y-146704819D01*
X168362142Y-146704819D02*
X167743095Y-146704819D01*
X150643094Y-137054819D02*
X150643094Y-136054819D01*
X150643094Y-136054819D02*
X150404999Y-136054819D01*
X150404999Y-136054819D02*
X150262142Y-136102438D01*
X150262142Y-136102438D02*
X150166904Y-136197676D01*
X150166904Y-136197676D02*
X150119285Y-136292914D01*
X150119285Y-136292914D02*
X150071666Y-136483390D01*
X150071666Y-136483390D02*
X150071666Y-136626247D01*
X150071666Y-136626247D02*
X150119285Y-136816723D01*
X150119285Y-136816723D02*
X150166904Y-136911961D01*
X150166904Y-136911961D02*
X150262142Y-137007200D01*
X150262142Y-137007200D02*
X150404999Y-137054819D01*
X150404999Y-137054819D02*
X150643094Y-137054819D01*
X149738332Y-136054819D02*
X149119285Y-136054819D01*
X149119285Y-136054819D02*
X149452618Y-136435771D01*
X149452618Y-136435771D02*
X149309761Y-136435771D01*
X149309761Y-136435771D02*
X149214523Y-136483390D01*
X149214523Y-136483390D02*
X149166904Y-136531009D01*
X149166904Y-136531009D02*
X149119285Y-136626247D01*
X149119285Y-136626247D02*
X149119285Y-136864342D01*
X149119285Y-136864342D02*
X149166904Y-136959580D01*
X149166904Y-136959580D02*
X149214523Y-137007200D01*
X149214523Y-137007200D02*
X149309761Y-137054819D01*
X149309761Y-137054819D02*
X149595475Y-137054819D01*
X149595475Y-137054819D02*
X149690713Y-137007200D01*
X149690713Y-137007200D02*
X149738332Y-136959580D01*
X157721666Y-214659580D02*
X157769285Y-214707200D01*
X157769285Y-214707200D02*
X157912142Y-214754819D01*
X157912142Y-214754819D02*
X158007380Y-214754819D01*
X158007380Y-214754819D02*
X158150237Y-214707200D01*
X158150237Y-214707200D02*
X158245475Y-214611961D01*
X158245475Y-214611961D02*
X158293094Y-214516723D01*
X158293094Y-214516723D02*
X158340713Y-214326247D01*
X158340713Y-214326247D02*
X158340713Y-214183390D01*
X158340713Y-214183390D02*
X158293094Y-213992914D01*
X158293094Y-213992914D02*
X158245475Y-213897676D01*
X158245475Y-213897676D02*
X158150237Y-213802438D01*
X158150237Y-213802438D02*
X158007380Y-213754819D01*
X158007380Y-213754819D02*
X157912142Y-213754819D01*
X157912142Y-213754819D02*
X157769285Y-213802438D01*
X157769285Y-213802438D02*
X157721666Y-213850057D01*
X157340713Y-213850057D02*
X157293094Y-213802438D01*
X157293094Y-213802438D02*
X157197856Y-213754819D01*
X157197856Y-213754819D02*
X156959761Y-213754819D01*
X156959761Y-213754819D02*
X156864523Y-213802438D01*
X156864523Y-213802438D02*
X156816904Y-213850057D01*
X156816904Y-213850057D02*
X156769285Y-213945295D01*
X156769285Y-213945295D02*
X156769285Y-214040533D01*
X156769285Y-214040533D02*
X156816904Y-214183390D01*
X156816904Y-214183390D02*
X157388332Y-214754819D01*
X157388332Y-214754819D02*
X156769285Y-214754819D01*
X108859819Y-197635714D02*
X107859819Y-197635714D01*
X107859819Y-197635714D02*
X107859819Y-197873809D01*
X107859819Y-197873809D02*
X107907438Y-198016666D01*
X107907438Y-198016666D02*
X108002676Y-198111904D01*
X108002676Y-198111904D02*
X108097914Y-198159523D01*
X108097914Y-198159523D02*
X108288390Y-198207142D01*
X108288390Y-198207142D02*
X108431247Y-198207142D01*
X108431247Y-198207142D02*
X108621723Y-198159523D01*
X108621723Y-198159523D02*
X108716961Y-198111904D01*
X108716961Y-198111904D02*
X108812200Y-198016666D01*
X108812200Y-198016666D02*
X108859819Y-197873809D01*
X108859819Y-197873809D02*
X108859819Y-197635714D01*
X108859819Y-199159523D02*
X108859819Y-198588095D01*
X108859819Y-198873809D02*
X107859819Y-198873809D01*
X107859819Y-198873809D02*
X108002676Y-198778571D01*
X108002676Y-198778571D02*
X108097914Y-198683333D01*
X108097914Y-198683333D02*
X108145533Y-198588095D01*
X107859819Y-199492857D02*
X107859819Y-200159523D01*
X107859819Y-200159523D02*
X108859819Y-199730952D01*
X165421666Y-204147080D02*
X165469285Y-204194700D01*
X165469285Y-204194700D02*
X165612142Y-204242319D01*
X165612142Y-204242319D02*
X165707380Y-204242319D01*
X165707380Y-204242319D02*
X165850237Y-204194700D01*
X165850237Y-204194700D02*
X165945475Y-204099461D01*
X165945475Y-204099461D02*
X165993094Y-204004223D01*
X165993094Y-204004223D02*
X166040713Y-203813747D01*
X166040713Y-203813747D02*
X166040713Y-203670890D01*
X166040713Y-203670890D02*
X165993094Y-203480414D01*
X165993094Y-203480414D02*
X165945475Y-203385176D01*
X165945475Y-203385176D02*
X165850237Y-203289938D01*
X165850237Y-203289938D02*
X165707380Y-203242319D01*
X165707380Y-203242319D02*
X165612142Y-203242319D01*
X165612142Y-203242319D02*
X165469285Y-203289938D01*
X165469285Y-203289938D02*
X165421666Y-203337557D01*
X164564523Y-203242319D02*
X164754999Y-203242319D01*
X164754999Y-203242319D02*
X164850237Y-203289938D01*
X164850237Y-203289938D02*
X164897856Y-203337557D01*
X164897856Y-203337557D02*
X164993094Y-203480414D01*
X164993094Y-203480414D02*
X165040713Y-203670890D01*
X165040713Y-203670890D02*
X165040713Y-204051842D01*
X165040713Y-204051842D02*
X164993094Y-204147080D01*
X164993094Y-204147080D02*
X164945475Y-204194700D01*
X164945475Y-204194700D02*
X164850237Y-204242319D01*
X164850237Y-204242319D02*
X164659761Y-204242319D01*
X164659761Y-204242319D02*
X164564523Y-204194700D01*
X164564523Y-204194700D02*
X164516904Y-204147080D01*
X164516904Y-204147080D02*
X164469285Y-204051842D01*
X164469285Y-204051842D02*
X164469285Y-203813747D01*
X164469285Y-203813747D02*
X164516904Y-203718509D01*
X164516904Y-203718509D02*
X164564523Y-203670890D01*
X164564523Y-203670890D02*
X164659761Y-203623271D01*
X164659761Y-203623271D02*
X164850237Y-203623271D01*
X164850237Y-203623271D02*
X164945475Y-203670890D01*
X164945475Y-203670890D02*
X164993094Y-203718509D01*
X164993094Y-203718509D02*
X165040713Y-203813747D01*
D11*
%TO.C,J2*%
X153543400Y-230561600D02*
X153543400Y-222721600D01*
X156193400Y-227911600D02*
X156193400Y-230561600D01*
X156193400Y-230561600D02*
X153543400Y-230561600D01*
X158843400Y-222721600D02*
X153543400Y-222721600D01*
X158843400Y-227911600D02*
X156193400Y-227911600D01*
X158843400Y-227911600D02*
X158843400Y-222721600D01*
X158843400Y-229181600D02*
X158843400Y-230561600D01*
X158843400Y-230561600D02*
X157463400Y-230561600D01*
%TO.C,D5*%
X114055000Y-154710000D02*
X112055000Y-154710000D01*
X114055000Y-154710000D02*
X114055000Y-150700000D01*
X112055000Y-154710000D02*
X112055000Y-150700000D01*
%TO.C,R6*%
X143877936Y-200635000D02*
X144332064Y-200635000D01*
X143877936Y-199165000D02*
X144332064Y-199165000D01*
%TO.C,D12*%
X95005000Y-192860000D02*
X93005000Y-192860000D01*
X95005000Y-192860000D02*
X95005000Y-188850000D01*
X93005000Y-192860000D02*
X93005000Y-188850000D01*
%TO.C,R4*%
X157770000Y-137922936D02*
X157770000Y-138377064D01*
X159240000Y-137922936D02*
X159240000Y-138377064D01*
%TO.C,U1*%
X158015000Y-203910000D02*
X157740000Y-203910000D01*
X150795000Y-203910000D02*
X151070000Y-203910000D01*
X158015000Y-203635000D02*
X158015000Y-203910000D01*
X150795000Y-203635000D02*
X150795000Y-203910000D01*
X158015000Y-196965000D02*
X158015000Y-196690000D01*
X150795000Y-196965000D02*
X150795000Y-196690000D01*
X158015000Y-196690000D02*
X157740000Y-196690000D01*
X150795000Y-196690000D02*
X151070000Y-196690000D01*
X158210000Y-204840000D02*
X157740000Y-204500000D01*
X158210000Y-204160000D01*
X158210000Y-204840000D01*
G36*
X158210000Y-204840000D02*
G01*
X157740000Y-204500000D01*
X158210000Y-204160000D01*
X158210000Y-204840000D01*
G37*
%TO.C,D24*%
X166645000Y-183350000D02*
X166645000Y-181350000D01*
X166645000Y-183350000D02*
X170655000Y-183350000D01*
X166645000Y-181350000D02*
X170655000Y-181350000D01*
%TO.C,R3*%
X155270000Y-137872936D02*
X155270000Y-138327064D01*
X156740000Y-137872936D02*
X156740000Y-138327064D01*
%TO.C,D6*%
X133055000Y-154710000D02*
X131055000Y-154710000D01*
X133055000Y-154710000D02*
X133055000Y-150700000D01*
X131055000Y-154710000D02*
X131055000Y-150700000D01*
%TO.C,R2*%
X165127936Y-125885000D02*
X165582064Y-125885000D01*
X165127936Y-124415000D02*
X165582064Y-124415000D01*
%TO.C,D13*%
X114055000Y-192860000D02*
X112055000Y-192860000D01*
X114055000Y-192860000D02*
X114055000Y-188850000D01*
X112055000Y-192860000D02*
X112055000Y-188850000D01*
%TO.C,D18*%
X124105000Y-196540000D02*
X126105000Y-196540000D01*
X124105000Y-196540000D02*
X124105000Y-200550000D01*
X126105000Y-196540000D02*
X126105000Y-200550000D01*
%TO.C,D25*%
X164795000Y-215150000D02*
X164795000Y-213150000D01*
X164795000Y-215150000D02*
X168805000Y-215150000D01*
X164795000Y-213150000D02*
X168805000Y-213150000D01*
%TO.C,R1*%
X149690000Y-126077064D02*
X149690000Y-125622936D01*
X148220000Y-126077064D02*
X148220000Y-125622936D01*
%TO.C,D7*%
X151555000Y-154960000D02*
X149555000Y-154960000D01*
X151555000Y-154960000D02*
X151555000Y-150950000D01*
X149555000Y-154960000D02*
X149555000Y-150950000D01*
%TO.C,D4*%
X95055000Y-154710000D02*
X93055000Y-154710000D01*
X95055000Y-154710000D02*
X95055000Y-150700000D01*
X93055000Y-154710000D02*
X93055000Y-150700000D01*
%TO.C,D26*%
X164845000Y-218950000D02*
X164845000Y-216950000D01*
X164845000Y-218950000D02*
X168855000Y-218950000D01*
X164845000Y-216950000D02*
X168855000Y-216950000D01*
D12*
%TO.C,J1*%
X152010000Y-122322500D02*
X152010000Y-121972500D01*
X152010000Y-121972500D02*
X160950000Y-121972500D01*
X160950000Y-121972500D02*
X160950000Y-122322500D01*
X152010000Y-125562500D02*
X152010000Y-124882500D01*
X160950000Y-125562500D02*
X160950000Y-124882500D01*
X153605000Y-129412500D02*
G75*
G02*
X153405000Y-129412500I-100000J0D01*
G01*
X153405000Y-129412500D02*
G75*
G02*
X153605000Y-129412500I100000J0D01*
G01*
D11*
%TO.C,D20*%
X99205000Y-219190000D02*
X101205000Y-219190000D01*
X99205000Y-219190000D02*
X99205000Y-223200000D01*
X101205000Y-219190000D02*
X101205000Y-223200000D01*
%TO.C,C4*%
X161320000Y-203888748D02*
X161320000Y-204411252D01*
X162790000Y-203888748D02*
X162790000Y-204411252D01*
%TO.C,F1*%
X154315000Y-138386252D02*
X154315000Y-137863748D01*
X152895000Y-138386252D02*
X152895000Y-137863748D01*
%TO.C,C3*%
X154406248Y-217535000D02*
X154928752Y-217535000D01*
X154406248Y-216065000D02*
X154928752Y-216065000D01*
%TO.C,D2*%
X123855000Y-135710000D02*
X121855000Y-135710000D01*
X123855000Y-135710000D02*
X123855000Y-131700000D01*
X121855000Y-135710000D02*
X121855000Y-131700000D01*
%TO.C,D8*%
X95055000Y-173710000D02*
X93055000Y-173710000D01*
X95055000Y-173710000D02*
X95055000Y-169700000D01*
X93055000Y-173710000D02*
X93055000Y-169700000D01*
%TO.C,C7*%
X155756248Y-232935000D02*
X156278752Y-232935000D01*
X155756248Y-231465000D02*
X156278752Y-231465000D01*
%TO.C,D11*%
X151055000Y-173710000D02*
X149055000Y-173710000D01*
X151055000Y-173710000D02*
X151055000Y-169700000D01*
X149055000Y-173710000D02*
X149055000Y-169700000D01*
%TO.C,D23*%
X166595000Y-164150000D02*
X166595000Y-162150000D01*
X166595000Y-164150000D02*
X170605000Y-164150000D01*
X166595000Y-162150000D02*
X170605000Y-162150000D01*
%TO.C,U2*%
X158165000Y-131450000D02*
X158165000Y-133250000D01*
X154945000Y-132450000D02*
X154945000Y-131650000D01*
X154945000Y-132450000D02*
X154945000Y-133250000D01*
X154995000Y-131150000D02*
X154665000Y-131390000D01*
X154665000Y-130910000D01*
X154995000Y-131150000D01*
G36*
X154995000Y-131150000D02*
G01*
X154665000Y-131390000D01*
X154665000Y-130910000D01*
X154995000Y-131150000D01*
G37*
%TO.C,R5*%
X154327936Y-220535000D02*
X154782064Y-220535000D01*
X154327936Y-219065000D02*
X154782064Y-219065000D01*
%TO.C,D21*%
X127405000Y-219190000D02*
X129405000Y-219190000D01*
X127405000Y-219190000D02*
X127405000Y-223200000D01*
X129405000Y-219190000D02*
X129405000Y-223200000D01*
%TO.C,D10*%
X133055000Y-173710000D02*
X131055000Y-173710000D01*
X133055000Y-173710000D02*
X133055000Y-169700000D01*
X131055000Y-173710000D02*
X131055000Y-169700000D01*
%TO.C,D14*%
X133055000Y-192860000D02*
X131055000Y-192860000D01*
X133055000Y-192860000D02*
X133055000Y-188850000D01*
X131055000Y-192860000D02*
X131055000Y-188850000D01*
%TO.C,D16*%
X86005000Y-196940000D02*
X88005000Y-196940000D01*
X86005000Y-196940000D02*
X86005000Y-200950000D01*
X88005000Y-196940000D02*
X88005000Y-200950000D01*
%TO.C,D9*%
X114055000Y-173710000D02*
X112055000Y-173710000D01*
X114055000Y-173710000D02*
X114055000Y-169700000D01*
X112055000Y-173710000D02*
X112055000Y-169700000D01*
%TO.C,D19*%
X136145000Y-211350000D02*
X136145000Y-209350000D01*
X136145000Y-211350000D02*
X140155000Y-211350000D01*
X136145000Y-209350000D02*
X140155000Y-209350000D01*
%TO.C,D15*%
X150855000Y-190510000D02*
X148855000Y-190510000D01*
X150855000Y-190510000D02*
X150855000Y-186500000D01*
X148855000Y-190510000D02*
X148855000Y-186500000D01*
%TO.C,D1*%
X95055000Y-135710000D02*
X93055000Y-135710000D01*
X95055000Y-135710000D02*
X95055000Y-131700000D01*
X93055000Y-135710000D02*
X93055000Y-131700000D01*
%TO.C,Y1*%
X158805000Y-207550000D02*
X158805000Y-209550000D01*
X158805000Y-209550000D02*
X158805000Y-209950000D01*
X158605000Y-207550000D02*
X158455000Y-207550000D01*
X158605000Y-209550000D02*
X158605000Y-207550000D01*
X158605000Y-209550000D02*
X158605000Y-209950000D01*
X158605000Y-209950000D02*
X158455000Y-209950000D01*
X157555000Y-209950000D02*
X157605000Y-209950000D01*
X157555000Y-209950000D02*
X157555000Y-210350000D01*
X155005000Y-207550000D02*
X155155000Y-207550000D01*
X155005000Y-207550000D02*
X155005000Y-209550000D01*
X155005000Y-209550000D02*
X155005000Y-209950000D01*
X155005000Y-209950000D02*
X155155000Y-209950000D01*
%TO.C,D22*%
X166645000Y-145250000D02*
X166645000Y-143250000D01*
X166645000Y-145250000D02*
X170655000Y-145250000D01*
X166645000Y-143250000D02*
X170655000Y-143250000D01*
%TO.C,D3*%
X150855000Y-135710000D02*
X148855000Y-135710000D01*
X150855000Y-135710000D02*
X150855000Y-131700000D01*
X148855000Y-135710000D02*
X148855000Y-131700000D01*
%TO.C,C2*%
X154406248Y-215035000D02*
X154928752Y-215035000D01*
X154406248Y-213565000D02*
X154928752Y-213565000D01*
%TO.C,D17*%
X105055000Y-196490000D02*
X107055000Y-196490000D01*
X105055000Y-196490000D02*
X105055000Y-200500000D01*
X107055000Y-196490000D02*
X107055000Y-200500000D01*
%TO.C,C6*%
X164570000Y-200826248D02*
X164570000Y-201348752D01*
X166040000Y-200826248D02*
X166040000Y-201348752D01*
%TD*%
M02*
