M48
; DRILL file {KiCad 9.0.2} date 2025-08-17T15:39:59-0600
; FORMAT={-:-/ absolute / metric / decimal}
; #@! TF.CreationDate,2025-08-17T15:39:59-06:00
; #@! TF.GenerationSoftware,Kicad,Pcbnew,9.0.2
; #@! TF.FileFunction,Plated,1,2,PTH
FMAT,2
METRIC
; #@! TA.AperFunction,Plated,PTH,ViaDrill
T1C0.300
; #@! TA.AperFunction,Plated,PTH,ComponentDrill
T2C0.400
; #@! TA.AperFunction,Plated,PTH,ComponentDrill
T3C0.600
; #@! TA.AperFunction,Plated,PTH,ComponentDrill
T4C1.000
; #@! TA.AperFunction,Plated,PTH,ComponentDrill
T5C1.500
; #@! TA.AperFunction,Plated,PTH,ComponentDrill
T6C1.524
%
G90
G05
T1
X121.005Y-214.05
X133.605Y-204.8
X136.405Y-206.7
X136.855Y-200.3
X136.955Y-204.8
X137.155Y-207.512
X140.005Y-196.05
X140.205Y-204.95
X142.105Y-208.45
X142.755Y-197.65
X145.005Y-201.5
X147.855Y-197.5
X147.904Y-198.649
X148.655Y-199.1
X149.155Y-195.05
X149.655Y-211.35
X150.307Y-211.85
X150.96Y-212.47
X152.253Y-183.0
X152.355Y-131.25
X152.355Y-134.65
X152.705Y-198.8
X152.705Y-201.6
X152.805Y-221.65
X152.953Y-173.4
X153.653Y-160.3
X154.005Y-208.7
X154.005Y-210.3
X154.455Y-221.85
X154.805Y-202.55
X155.205Y-142.75
X155.255Y-190.2
X155.955Y-212.45
X155.983Y-150.878
X156.33Y-200.525
X156.455Y-221.85
X156.555Y-129.6
X157.005Y-202.3
X157.205Y-197.5
X157.605Y-212.45
X157.655Y-152.55
X157.655Y-161.35
X157.655Y-164.95
X157.705Y-147.95
X157.855Y-181.0
X157.905Y-183.75
X158.505Y-221.7
X159.655Y-208.7
X159.655Y-210.3
X160.155Y-135.0
X160.205Y-197.15
X160.255Y-131.2
X160.778Y-198.652
X161.191Y-197.245
X161.255Y-146.75
X161.255Y-152.55
X161.255Y-161.35
X161.255Y-164.95
X161.255Y-183.75
X161.355Y-180.95
X162.205Y-208.4
X162.655Y-185.8
X163.005Y-215.3
X163.08Y-216.725
X163.455Y-186.55
X163.855Y-197.9
X165.205Y-146.45
X165.405Y-163.15
X165.605Y-182.35
T2
X153.505Y-126.722
X153.505Y-128.072
X154.355Y-126.722
X154.355Y-128.072
X155.205Y-126.722
X155.205Y-128.072
X156.055Y-126.722
X156.055Y-128.072
X156.905Y-126.722
X156.905Y-128.072
X157.755Y-126.722
X157.755Y-128.072
X158.605Y-126.722
X158.605Y-128.072
X159.455Y-126.722
X159.455Y-128.072
T4
X154.915Y-224.11
X154.915Y-226.65
X154.915Y-229.19
X157.455Y-224.11
X157.455Y-226.65
X157.455Y-229.19
X162.68Y-130.85
X162.68Y-133.35
X162.68Y-135.85
X177.18Y-130.85
X177.18Y-135.85
T6
X80.645Y-130.81
X80.645Y-149.86
X80.645Y-168.91
X80.645Y-187.96
X80.645Y-207.01
X81.955Y-129.35
X81.955Y-148.4
X81.955Y-167.45
X81.955Y-186.5
X81.955Y-205.55
X86.955Y-128.85
X86.955Y-147.9
X86.955Y-166.95
X86.955Y-186.0
X86.955Y-205.05
X86.995Y-128.27
X86.995Y-147.32
X86.995Y-166.37
X86.995Y-185.42
X86.995Y-204.47
X90.17Y-226.06
X91.48Y-224.6
X96.48Y-224.1
X96.52Y-223.52
X99.695Y-149.86
X99.695Y-168.91
X99.695Y-187.96
X99.695Y-207.01
X101.005Y-148.4
X101.005Y-167.45
X101.005Y-186.5
X101.005Y-205.55
X106.005Y-147.9
X106.005Y-166.95
X106.005Y-186.0
X106.005Y-205.05
X106.045Y-147.32
X106.045Y-166.37
X106.045Y-185.42
X106.045Y-204.47
X109.227Y-130.81
X110.537Y-129.35
X115.537Y-128.85
X115.577Y-128.27
X118.745Y-149.86
X118.745Y-168.91
X118.745Y-187.96
X118.745Y-207.01
X118.745Y-226.06
X120.055Y-148.4
X120.055Y-167.45
X120.055Y-186.5
X120.055Y-205.55
X120.055Y-224.6
X125.055Y-147.9
X125.055Y-166.95
X125.055Y-186.0
X125.055Y-205.05
X125.055Y-224.1
X125.095Y-147.32
X125.095Y-166.37
X125.095Y-185.42
X125.095Y-204.47
X125.095Y-223.52
X137.795Y-130.81
X137.795Y-149.86
X137.795Y-168.91
X137.795Y-187.96
X137.795Y-216.535
X139.105Y-129.35
X139.105Y-148.4
X139.105Y-167.45
X139.105Y-186.5
X139.105Y-215.075
X144.105Y-128.85
X144.105Y-147.9
X144.105Y-166.95
X144.105Y-186.0
X144.105Y-214.575
X144.145Y-128.27
X144.145Y-147.32
X144.145Y-166.37
X144.145Y-185.42
X144.145Y-213.995
X166.37Y-149.86
X166.37Y-168.91
X166.37Y-187.96
X166.37Y-207.01
X166.37Y-226.06
X167.68Y-148.4
X167.68Y-167.45
X167.68Y-186.5
X167.68Y-205.55
X167.68Y-224.6
X172.68Y-147.9
X172.68Y-166.95
X172.68Y-186.0
X172.68Y-205.05
X172.68Y-224.1
X172.72Y-147.32
X172.72Y-166.37
X172.72Y-185.42
X172.72Y-204.47
X172.72Y-223.52
T3
G00X152.155Y-123.312
M15
G01X152.155Y-124.112
M16
G05
G00X152.155Y-126.343
M15
G01X152.155Y-127.843
M16
G05
G00X160.805Y-123.312
M15
G01X160.805Y-124.112
M16
G05
G00X160.805Y-126.343
M15
G01X160.805Y-127.843
M16
G05
T5
G00X169.53Y-127.75
M15
G01X170.83Y-127.75
M16
G05
G00X169.53Y-138.95
M15
G01X170.83Y-138.95
M16
G05
M30
